<?xml version="1.0" encoding="utf-8" standalone="no"?>
<!DOCTYPE svg PUBLIC "-//W3C//DTD SVG 1.1//EN"
  "http://www.w3.org/Graphics/SVG/1.1/DTD/svg11.dtd">
<svg xmlns:xlink="http://www.w3.org/1999/xlink" width="684pt" height="457.92pt" viewBox="0 0 684 457.92" xmlns="http://www.w3.org/2000/svg" version="1.1">
 <metadata>
  <rdf:RDF xmlns:dc="http://purl.org/dc/elements/1.1/" xmlns:cc="http://creativecommons.org/ns#" xmlns:rdf="http://www.w3.org/1999/02/22-rdf-syntax-ns#">
   <cc:Work>
    <dc:type rdf:resource="http://purl.org/dc/dcmitype/StillImage"/>
    <dc:date>2026-03-05T05:30:53.714674</dc:date>
    <dc:format>image/svg+xml</dc:format>
    <dc:creator>
     <cc:Agent>
      <dc:title>Matplotlib v3.7.5, https://matplotlib.org/</dc:title>
     </cc:Agent>
    </dc:creator>
   </cc:Work>
  </rdf:RDF>
 </metadata>
 <defs>
  <style type="text/css">*{stroke-linejoin: round; stroke-linecap: butt}</style>
 </defs>
 <g id="figure_1">
  <g id="patch_1">
   <path d="M 0 457.92 
L 684 457.92 
L 684 0 
L 0 0 
z
" style="fill: #ffffff"/>
  </g>
  <g id="axes_1">
   <g id="patch_2">
    <path d="M 74.16 159.66 
C 77.859583 159.66 81.408139 158.199623 84.02414 155.6005 
C 86.64014 153.001377 88.11 149.475715 88.11 145.8 
C 88.11 142.124285 86.64014 138.598623 84.02414 135.9995 
C 81.408139 133.400377 77.859583 131.94 74.16 131.94 
C 70.460417 131.94 66.911861 133.400377 64.29586 135.9995 
C 61.67986 138.598623 60.21 142.124285 60.21 145.8 
C 60.21 149.475715 61.67986 153.001377 64.29586 155.6005 
C 66.911861 158.199623 70.460417 159.66 74.16 159.66 
L 74.16 159.66 
z
" clip-path="url(#p448677b74e)" style="fill: none; stroke: #000000; stroke-width: 2; stroke-linejoin: miter"/>
   </g>
   <g id="patch_3">
    <path d="M 241.56 129.168 
C 259.318 129.168 276.351068 126.831397 288.90787 122.6728 
C 301.464672 118.514203 308.52 112.873144 308.52 106.992 
C 308.52 101.110856 301.464672 95.469797 288.90787 91.3112 
C 276.351068 87.152603 259.318 84.816 241.56 84.816 
C 223.802 84.816 206.768932 87.152603 194.21213 91.3112 
C 181.655328 95.469797 174.6 101.110856 174.6 106.992 
C 174.6 112.873144 181.655328 118.514203 194.21213 122.6728 
C 206.768932 126.831397 223.802 129.168 241.56 129.168 
L 241.56 129.168 
z
" clip-path="url(#p448677b74e)" style="fill: none; stroke: #000000; stroke-width: 1.8; stroke-linejoin: miter"/>
   </g>
   <g id="patch_4">
    <path d="M 509.4 85.0932 
C 530.857583 85.0932 551.439207 83.19471 566.61201 79.81585 
C 581.784812 76.43699 590.31 71.853629 590.31 67.0752 
C 590.31 62.296771 581.784812 57.71341 566.61201 54.33455 
C 551.439207 50.95569 530.857583 49.0572 509.4 49.0572 
C 487.942417 49.0572 467.360793 50.95569 452.18799 54.33455 
C 437.015188 57.71341 428.49 62.296771 428.49 67.0752 
C 428.49 71.853629 437.015188 76.43699 452.18799 79.81585 
C 467.360793 83.19471 487.942417 85.0932 509.4 85.0932 
L 509.4 85.0932 
z
" clip-path="url(#p448677b74e)" style="fill: none; stroke: #000000; stroke-width: 1.8; stroke-linejoin: miter"/>
   </g>
   <g id="patch_5">
    <path d="M 509.4 111.7044 
C 530.857583 111.7044 551.439207 109.80591 566.61201 106.42705 
C 581.784812 103.04819 590.31 98.464829 590.31 93.6864 
C 590.31 88.907971 581.784812 84.32461 566.61201 80.94575 
C 551.439207 77.56689 530.857583 75.6684 509.4 75.6684 
C 487.942417 75.6684 467.360793 77.56689 452.18799 80.94575 
C 437.015188 84.32461 428.49 88.907971 428.49 93.6864 
C 428.49 98.464829 437.015188 103.04819 452.18799 106.42705 
C 467.360793 109.80591 487.942417 111.7044 509.4 111.7044 
L 509.4 111.7044 
z
" clip-path="url(#p448677b74e)" style="fill: none; stroke: #000000; stroke-width: 1.8; stroke-linejoin: miter"/>
   </g>
   <g id="patch_6">
    <path d="M 509.4 138.3156 
C 530.857583 138.3156 551.439207 136.41711 566.61201 133.03825 
C 581.784812 129.65939 590.31 125.076029 590.31 120.2976 
C 590.31 115.519171 581.784812 110.93581 566.61201 107.55695 
C 551.439207 104.17809 530.857583 102.2796 509.4 102.2796 
C 487.942417 102.2796 467.360793 104.17809 452.18799 107.55695 
C 437.015188 110.93581 428.49 115.519171 428.49 120.2976 
C 428.49 125.076029 437.015188 129.65939 452.18799 133.03825 
C 467.360793 136.41711 487.942417 138.3156 509.4 138.3156 
L 509.4 138.3156 
z
" clip-path="url(#p448677b74e)" style="fill: none; stroke: #000000; stroke-width: 1.8; stroke-linejoin: miter"/>
   </g>
   <g id="patch_7">
    <path d="M 509.4 164.9268 
C 530.857583 164.9268 551.439207 163.02831 566.61201 159.64945 
C 581.784812 156.27059 590.31 151.687229 590.31 146.9088 
C 590.31 142.130371 581.784812 137.54701 566.61201 134.16815 
C 551.439207 130.78929 530.857583 128.8908 509.4 128.8908 
C 487.942417 128.8908 467.360793 130.78929 452.18799 134.16815 
C 437.015188 137.54701 428.49 142.130371 428.49 146.9088 
C 428.49 151.687229 437.015188 156.27059 452.18799 159.64945 
C 467.360793 163.02831 487.942417 164.9268 509.4 164.9268 
L 509.4 164.9268 
z
" clip-path="url(#p448677b74e)" style="fill: none; stroke: #000000; stroke-width: 1.8; stroke-linejoin: miter"/>
   </g>
   <g id="patch_8">
    <path d="M 241.56 195.696 
C 259.318 195.696 276.351068 193.359397 288.90787 189.2008 
C 301.464672 185.042203 308.52 179.401144 308.52 173.52 
C 308.52 167.638856 301.464672 161.997797 288.90787 157.8392 
C 276.351068 153.680603 259.318 151.344 241.56 151.344 
C 223.802 151.344 206.768932 153.680603 194.21213 157.8392 
C 181.655328 161.997797 174.6 167.638856 174.6 173.52 
C 174.6 179.401144 181.655328 185.042203 194.21213 189.2008 
C 206.768932 193.359397 223.802 195.696 241.56 195.696 
L 241.56 195.696 
z
" clip-path="url(#p448677b74e)" style="fill: none; stroke: #000000; stroke-width: 1.8; stroke-linejoin: miter"/>
   </g>
   <g id="patch_9">
    <path d="M 509.4 151.6212 
C 530.857583 151.6212 551.439207 149.72271 566.61201 146.34385 
C 581.784812 142.96499 590.31 138.381629 590.31 133.6032 
C 590.31 128.824771 581.784812 124.24141 566.61201 120.86255 
C 551.439207 117.48369 530.857583 115.5852 509.4 115.5852 
C 487.942417 115.5852 467.360793 117.48369 452.18799 120.86255 
C 437.015188 124.24141 428.49 128.824771 428.49 133.6032 
C 428.49 138.381629 437.015188 142.96499 452.18799 146.34385 
C 467.360793 149.72271 487.942417 151.6212 509.4 151.6212 
L 509.4 151.6212 
z
" clip-path="url(#p448677b74e)" style="fill: none; stroke: #000000; stroke-width: 1.8; stroke-linejoin: miter"/>
   </g>
   <g id="patch_10">
    <path d="M 509.4 178.2324 
C 530.857583 178.2324 551.439207 176.33391 566.61201 172.95505 
C 581.784812 169.57619 590.31 164.992829 590.31 160.2144 
C 590.31 155.435971 581.784812 150.85261 566.61201 147.47375 
C 551.439207 144.09489 530.857583 142.1964 509.4 142.1964 
C 487.942417 142.1964 467.360793 144.09489 452.18799 147.47375 
C 437.015188 150.85261 428.49 155.435971 428.49 160.2144 
C 428.49 164.992829 437.015188 169.57619 452.18799 172.95505 
C 467.360793 176.33391 487.942417 178.2324 509.4 178.2324 
L 509.4 178.2324 
z
" clip-path="url(#p448677b74e)" style="fill: none; stroke: #000000; stroke-width: 1.8; stroke-linejoin: miter"/>
   </g>
   <g id="patch_11">
    <path d="M 509.4 204.8436 
C 530.857583 204.8436 551.439207 202.94511 566.61201 199.56625 
C 581.784812 196.18739 590.31 191.604029 590.31 186.8256 
C 590.31 182.047171 581.784812 177.46381 566.61201 174.08495 
C 551.439207 170.70609 530.857583 168.8076 509.4 168.8076 
C 487.942417 168.8076 467.360793 170.70609 452.18799 174.08495 
C 437.015188 177.46381 428.49 182.047171 428.49 186.8256 
C 428.49 191.604029 437.015188 196.18739 452.18799 199.56625 
C 467.360793 202.94511 487.942417 204.8436 509.4 204.8436 
L 509.4 204.8436 
z
" clip-path="url(#p448677b74e)" style="fill: none; stroke: #000000; stroke-width: 1.8; stroke-linejoin: miter"/>
   </g>
   <g id="patch_12">
    <path d="M 509.4 231.4548 
C 530.857583 231.4548 551.439207 229.55631 566.61201 226.17745 
C 581.784812 222.79859 590.31 218.215229 590.31 213.4368 
C 590.31 208.658371 581.784812 204.07501 566.61201 200.69615 
C 551.439207 197.31729 530.857583 195.4188 509.4 195.4188 
C 487.942417 195.4188 467.360793 197.31729 452.18799 200.69615 
C 437.015188 204.07501 428.49 208.658371 428.49 213.4368 
C 428.49 218.215229 437.015188 222.79859 452.18799 226.17745 
C 467.360793 229.55631 487.942417 231.4548 509.4 231.4548 
L 509.4 231.4548 
z
" clip-path="url(#p448677b74e)" style="fill: none; stroke: #000000; stroke-width: 1.8; stroke-linejoin: miter"/>
   </g>
   <g id="patch_13">
    <path d="M 241.56 262.224 
C 259.318 262.224 276.351068 259.887397 288.90787 255.7288 
C 301.464672 251.570203 308.52 245.929144 308.52 240.048 
C 308.52 234.166856 301.464672 228.525797 288.90787 224.3672 
C 276.351068 220.208603 259.318 217.872 241.56 217.872 
C 223.802 217.872 206.768932 220.208603 194.21213 224.3672 
C 181.655328 228.525797 174.6 234.166856 174.6 240.048 
C 174.6 245.929144 181.655328 251.570203 194.21213 255.7288 
C 206.768932 259.887397 223.802 262.224 241.56 262.224 
L 241.56 262.224 
z
" clip-path="url(#p448677b74e)" style="fill: none; stroke: #000000; stroke-width: 1.8; stroke-linejoin: miter"/>
   </g>
   <g id="patch_14">
    <path d="M 509.4 218.1492 
C 530.857583 218.1492 551.439207 216.25071 566.61201 212.87185 
C 581.784812 209.49299 590.31 204.909629 590.31 200.1312 
C 590.31 195.352771 581.784812 190.76941 566.61201 187.39055 
C 551.439207 184.01169 530.857583 182.1132 509.4 182.1132 
C 487.942417 182.1132 467.360793 184.01169 452.18799 187.39055 
C 437.015188 190.76941 428.49 195.352771 428.49 200.1312 
C 428.49 204.909629 437.015188 209.49299 452.18799 212.87185 
C 467.360793 216.25071 487.942417 218.1492 509.4 218.1492 
L 509.4 218.1492 
z
" clip-path="url(#p448677b74e)" style="fill: none; stroke: #000000; stroke-width: 1.8; stroke-linejoin: miter"/>
   </g>
   <g id="patch_15">
    <path d="M 509.4 244.7604 
C 530.857583 244.7604 551.439207 242.86191 566.61201 239.48305 
C 581.784812 236.10419 590.31 231.520829 590.31 226.7424 
C 590.31 221.963971 581.784812 217.38061 566.61201 214.00175 
C 551.439207 210.62289 530.857583 208.7244 509.4 208.7244 
C 487.942417 208.7244 467.360793 210.62289 452.18799 214.00175 
C 437.015188 217.38061 428.49 221.963971 428.49 226.7424 
C 428.49 231.520829 437.015188 236.10419 452.18799 239.48305 
C 467.360793 242.86191 487.942417 244.7604 509.4 244.7604 
L 509.4 244.7604 
z
" clip-path="url(#p448677b74e)" style="fill: none; stroke: #000000; stroke-width: 1.8; stroke-linejoin: miter"/>
   </g>
   <g id="patch_16">
    <path d="M 509.4 271.3716 
C 530.857583 271.3716 551.439207 269.47311 566.61201 266.09425 
C 581.784812 262.71539 590.31 258.132029 590.31 253.3536 
C 590.31 248.575171 581.784812 243.99181 566.61201 240.61295 
C 551.439207 237.23409 530.857583 235.3356 509.4 235.3356 
C 487.942417 235.3356 467.360793 237.23409 452.18799 240.61295 
C 437.015188 243.99181 428.49 248.575171 428.49 253.3536 
C 428.49 258.132029 437.015188 262.71539 452.18799 266.09425 
C 467.360793 269.47311 487.942417 271.3716 509.4 271.3716 
L 509.4 271.3716 
z
" clip-path="url(#p448677b74e)" style="fill: none; stroke: #000000; stroke-width: 1.8; stroke-linejoin: miter"/>
   </g>
   <g id="patch_17">
    <path d="M 509.4 297.9828 
C 530.857583 297.9828 551.439207 296.08431 566.61201 292.70545 
C 581.784812 289.32659 590.31 284.743229 590.31 279.9648 
C 590.31 275.186371 581.784812 270.60301 566.61201 267.22415 
C 551.439207 263.84529 530.857583 261.9468 509.4 261.9468 
C 487.942417 261.9468 467.360793 263.84529 452.18799 267.22415 
C 437.015188 270.60301 428.49 275.186371 428.49 279.9648 
C 428.49 284.743229 437.015188 289.32659 452.18799 292.70545 
C 467.360793 296.08431 487.942417 297.9828 509.4 297.9828 
L 509.4 297.9828 
z
" clip-path="url(#p448677b74e)" style="fill: none; stroke: #000000; stroke-width: 1.8; stroke-linejoin: miter"/>
   </g>
   <g id="patch_18">
    <path d="M 241.56 328.752 
C 259.318 328.752 276.351068 326.415397 288.90787 322.2568 
C 301.464672 318.098203 308.52 312.457144 308.52 306.576 
C 308.52 300.694856 301.464672 295.053797 288.90787 290.8952 
C 276.351068 286.736603 259.318 284.4 241.56 284.4 
C 223.802 284.4 206.768932 286.736603 194.21213 290.8952 
C 181.655328 295.053797 174.6 300.694856 174.6 306.576 
C 174.6 312.457144 181.655328 318.098203 194.21213 322.2568 
C 206.768932 326.415397 223.802 328.752 241.56 328.752 
L 241.56 328.752 
z
" clip-path="url(#p448677b74e)" style="fill: none; stroke: #000000; stroke-width: 1.8; stroke-linejoin: miter"/>
   </g>
   <g id="patch_19">
    <path d="M 509.4 284.6772 
C 530.857583 284.6772 551.439207 282.77871 566.61201 279.39985 
C 581.784812 276.02099 590.31 271.437629 590.31 266.6592 
C 590.31 261.880771 581.784812 257.29741 566.61201 253.91855 
C 551.439207 250.53969 530.857583 248.6412 509.4 248.6412 
C 487.942417 248.6412 467.360793 250.53969 452.18799 253.91855 
C 437.015188 257.29741 428.49 261.880771 428.49 266.6592 
C 428.49 271.437629 437.015188 276.02099 452.18799 279.39985 
C 467.360793 282.77871 487.942417 284.6772 509.4 284.6772 
L 509.4 284.6772 
z
" clip-path="url(#p448677b74e)" style="fill: none; stroke: #000000; stroke-width: 1.8; stroke-linejoin: miter"/>
   </g>
   <g id="patch_20">
    <path d="M 509.4 311.2884 
C 530.857583 311.2884 551.439207 309.38991 566.61201 306.01105 
C 581.784812 302.63219 590.31 298.048829 590.31 293.2704 
C 590.31 288.491971 581.784812 283.90861 566.61201 280.52975 
C 551.439207 277.15089 530.857583 275.2524 509.4 275.2524 
C 487.942417 275.2524 467.360793 277.15089 452.18799 280.52975 
C 437.015188 283.90861 428.49 288.491971 428.49 293.2704 
C 428.49 298.048829 437.015188 302.63219 452.18799 306.01105 
C 467.360793 309.38991 487.942417 311.2884 509.4 311.2884 
L 509.4 311.2884 
z
" clip-path="url(#p448677b74e)" style="fill: none; stroke: #000000; stroke-width: 1.8; stroke-linejoin: miter"/>
   </g>
   <g id="patch_21">
    <path d="M 509.4 337.8996 
C 530.857583 337.8996 551.439207 336.00111 566.61201 332.62225 
C 581.784812 329.24339 590.31 324.660029 590.31 319.8816 
C 590.31 315.103171 581.784812 310.51981 566.61201 307.14095 
C 551.439207 303.76209 530.857583 301.8636 509.4 301.8636 
C 487.942417 301.8636 467.360793 303.76209 452.18799 307.14095 
C 437.015188 310.51981 428.49 315.103171 428.49 319.8816 
C 428.49 324.660029 437.015188 329.24339 452.18799 332.62225 
C 467.360793 336.00111 487.942417 337.8996 509.4 337.8996 
L 509.4 337.8996 
z
" clip-path="url(#p448677b74e)" style="fill: none; stroke: #000000; stroke-width: 1.8; stroke-linejoin: miter"/>
   </g>
   <g id="patch_22">
    <path d="M 509.4 364.5108 
C 530.857583 364.5108 551.439207 362.61231 566.61201 359.23345 
C 581.784812 355.85459 590.31 351.271229 590.31 346.4928 
C 590.31 341.714371 581.784812 337.13101 566.61201 333.75215 
C 551.439207 330.37329 530.857583 328.4748 509.4 328.4748 
C 487.942417 328.4748 467.360793 330.37329 452.18799 333.75215 
C 437.015188 337.13101 428.49 341.714371 428.49 346.4928 
C 428.49 351.271229 437.015188 355.85459 452.18799 359.23345 
C 467.360793 362.61231 487.942417 364.5108 509.4 364.5108 
L 509.4 364.5108 
z
" clip-path="url(#p448677b74e)" style="fill: none; stroke: #000000; stroke-width: 1.8; stroke-linejoin: miter"/>
   </g>
   <g id="line2d_1">
    <path d="M 74.16 159.66 
L 74.16 206.784 
" clip-path="url(#p448677b74e)" style="fill: none; stroke: #000000; stroke-width: 2; stroke-linecap: square"/>
   </g>
   <g id="line2d_2">
    <path d="M 49.05 173.52 
L 99.27 173.52 
" clip-path="url(#p448677b74e)" style="fill: none; stroke: #000000; stroke-width: 2; stroke-linecap: square"/>
   </g>
   <g id="line2d_3">
    <path d="M 74.16 206.784 
L 51.84 245.592 
" clip-path="url(#p448677b74e)" style="fill: none; stroke: #000000; stroke-width: 2; stroke-linecap: square"/>
   </g>
   <g id="line2d_4">
    <path d="M 74.16 206.784 
L 96.48 245.592 
" clip-path="url(#p448677b74e)" style="fill: none; stroke: #000000; stroke-width: 2; stroke-linecap: square"/>
   </g>
   <g id="line2d_5">
    <path d="M 113.22 179.064 
L 174.6 106.992 
" clip-path="url(#p448677b74e)" style="fill: none; stroke: #000000; stroke-width: 1.5; stroke-linecap: square"/>
   </g>
   <g id="line2d_6">
    <path d="M 308.52 106.992 
L 428.49 67.0752 
" clip-path="url(#p448677b74e)" style="fill: none; stroke-dasharray: 4.44,1.92; stroke-dashoffset: 0; stroke: #000000; stroke-width: 1.2"/>
   </g>
   <g id="line2d_7">
    <path d="M 308.52 106.992 
L 428.49 93.6864 
" clip-path="url(#p448677b74e)" style="fill: none; stroke-dasharray: 4.44,1.92; stroke-dashoffset: 0; stroke: #000000; stroke-width: 1.2"/>
   </g>
   <g id="line2d_8">
    <path d="M 308.52 106.992 
L 428.49 120.2976 
" clip-path="url(#p448677b74e)" style="fill: none; stroke-dasharray: 4.44,1.92; stroke-dashoffset: 0; stroke: #000000; stroke-width: 1.2"/>
   </g>
   <g id="line2d_9">
    <path d="M 308.52 106.992 
L 428.49 146.9088 
" clip-path="url(#p448677b74e)" style="fill: none; stroke-dasharray: 4.44,1.92; stroke-dashoffset: 0; stroke: #000000; stroke-width: 1.2"/>
   </g>
   <g id="line2d_10">
    <path d="M 113.22 179.064 
L 174.6 173.52 
" clip-path="url(#p448677b74e)" style="fill: none; stroke: #000000; stroke-width: 1.5; stroke-linecap: square"/>
   </g>
   <g id="line2d_11">
    <path d="M 308.52 173.52 
L 428.49 133.6032 
" clip-path="url(#p448677b74e)" style="fill: none; stroke-dasharray: 4.44,1.92; stroke-dashoffset: 0; stroke: #000000; stroke-width: 1.2"/>
   </g>
   <g id="line2d_12">
    <path d="M 308.52 173.52 
L 428.49 160.2144 
" clip-path="url(#p448677b74e)" style="fill: none; stroke-dasharray: 4.44,1.92; stroke-dashoffset: 0; stroke: #000000; stroke-width: 1.2"/>
   </g>
   <g id="line2d_13">
    <path d="M 308.52 173.52 
L 428.49 186.8256 
" clip-path="url(#p448677b74e)" style="fill: none; stroke-dasharray: 4.44,1.92; stroke-dashoffset: 0; stroke: #000000; stroke-width: 1.2"/>
   </g>
   <g id="line2d_14">
    <path d="M 308.52 173.52 
L 428.49 213.4368 
" clip-path="url(#p448677b74e)" style="fill: none; stroke-dasharray: 4.44,1.92; stroke-dashoffset: 0; stroke: #000000; stroke-width: 1.2"/>
   </g>
   <g id="line2d_15">
    <path d="M 113.22 179.064 
L 174.6 240.048 
" clip-path="url(#p448677b74e)" style="fill: none; stroke: #000000; stroke-width: 1.5; stroke-linecap: square"/>
   </g>
   <g id="line2d_16">
    <path d="M 308.52 240.048 
L 428.49 200.1312 
" clip-path="url(#p448677b74e)" style="fill: none; stroke-dasharray: 4.44,1.92; stroke-dashoffset: 0; stroke: #000000; stroke-width: 1.2"/>
   </g>
   <g id="line2d_17">
    <path d="M 308.52 240.048 
L 428.49 226.7424 
" clip-path="url(#p448677b74e)" style="fill: none; stroke-dasharray: 4.44,1.92; stroke-dashoffset: 0; stroke: #000000; stroke-width: 1.2"/>
   </g>
   <g id="line2d_18">
    <path d="M 308.52 240.048 
L 428.49 253.3536 
" clip-path="url(#p448677b74e)" style="fill: none; stroke-dasharray: 4.44,1.92; stroke-dashoffset: 0; stroke: #000000; stroke-width: 1.2"/>
   </g>
   <g id="line2d_19">
    <path d="M 308.52 240.048 
L 428.49 279.9648 
" clip-path="url(#p448677b74e)" style="fill: none; stroke-dasharray: 4.44,1.92; stroke-dashoffset: 0; stroke: #000000; stroke-width: 1.2"/>
   </g>
   <g id="line2d_20">
    <path d="M 113.22 179.064 
L 174.6 306.576 
" clip-path="url(#p448677b74e)" style="fill: none; stroke: #000000; stroke-width: 1.5; stroke-linecap: square"/>
   </g>
   <g id="line2d_21">
    <path d="M 308.52 306.576 
L 428.49 266.6592 
" clip-path="url(#p448677b74e)" style="fill: none; stroke-dasharray: 4.44,1.92; stroke-dashoffset: 0; stroke: #000000; stroke-width: 1.2"/>
   </g>
   <g id="line2d_22">
    <path d="M 308.52 306.576 
L 428.49 293.2704 
" clip-path="url(#p448677b74e)" style="fill: none; stroke-dasharray: 4.44,1.92; stroke-dashoffset: 0; stroke: #000000; stroke-width: 1.2"/>
   </g>
   <g id="line2d_23">
    <path d="M 308.52 306.576 
L 428.49 319.8816 
" clip-path="url(#p448677b74e)" style="fill: none; stroke-dasharray: 4.44,1.92; stroke-dashoffset: 0; stroke: #000000; stroke-width: 1.2"/>
   </g>
   <g id="line2d_24">
    <path d="M 308.52 306.576 
L 428.49 346.4928 
" clip-path="url(#p448677b74e)" style="fill: none; stroke-dasharray: 4.44,1.92; stroke-dashoffset: 0; stroke: #000000; stroke-width: 1.2"/>
   </g>
   <g id="text_1">
    <!-- 管理员 -->
    <g transform="translate(54.66 271.452687) scale(0.13 -0.13)">
     <defs>
      <path id="NotoSansCJKjp-Regular-7ba1" d="M 1453 2803 
L 1453 -518 
L 1907 -518 
L 1907 -301 
L 4922 -301 
L 4922 -506 
L 5402 -506 
L 5402 1075 
L 1907 1075 
L 1907 1517 
L 4992 1517 
L 4992 2803 
L 1453 2803 
z
M 4922 77 
L 1907 77 
L 1907 698 
L 4922 698 
L 4922 77 
z
M 3686 5408 
C 3558 5088 3360 4781 3117 4518 
L 3117 4883 
L 1427 4883 
C 1498 5018 1562 5152 1619 5286 
L 1171 5408 
C 973 4902 621 4403 243 4070 
C 352 4013 550 3878 640 3808 
C 826 3994 1018 4230 1190 4493 
L 1459 4493 
C 1587 4275 1715 4006 1760 3834 
L 2202 3962 
C 2150 4109 2054 4307 1946 4493 
L 3091 4493 
C 2963 4358 2829 4237 2688 4134 
L 2950 3994 
L 2950 3578 
L 525 3578 
L 525 2374 
L 979 2374 
L 979 3200 
L 5459 3200 
L 5459 2374 
L 5926 2374 
L 5926 3578 
L 3418 3578 
L 3418 4083 
L 3315 4083 
C 3443 4205 3565 4346 3680 4493 
L 4192 4493 
C 4371 4275 4550 3994 4634 3814 
L 5069 3962 
C 4998 4109 4864 4314 4717 4493 
L 6125 4493 
L 6125 4883 
L 3942 4883 
C 4019 5018 4090 5152 4147 5293 
L 3686 5408 
z
M 1907 2432 
L 4512 2432 
L 4512 1882 
L 1907 1882 
L 1907 2432 
z
" transform="scale(0.015625)"/>
      <path id="NotoSansCJKjp-Regular-7406" d="M 3046 3456 
L 4026 3456 
L 4026 2630 
L 3046 2630 
L 3046 3456 
z
M 4442 3456 
L 5421 3456 
L 5421 2630 
L 4442 2630 
L 4442 3456 
z
M 3046 4659 
L 4026 4659 
L 4026 3846 
L 3046 3846 
L 3046 4659 
z
M 4442 4659 
L 5421 4659 
L 5421 3846 
L 4442 3846 
L 4442 4659 
z
M 2035 141 
L 2035 -301 
L 6189 -301 
L 6189 141 
L 4480 141 
L 4480 1024 
L 5971 1024 
L 5971 1459 
L 4480 1459 
L 4480 2214 
L 5882 2214 
L 5882 5082 
L 2605 5082 
L 2605 2214 
L 3987 2214 
L 3987 1459 
L 2528 1459 
L 2528 1024 
L 3987 1024 
L 3987 141 
L 2035 141 
z
M 224 640 
L 346 154 
C 909 339 1645 589 2336 819 
L 2253 1286 
L 1549 1050 
L 1549 2643 
L 2195 2643 
L 2195 3091 
L 1549 3091 
L 1549 4493 
L 2291 4493 
L 2291 4941 
L 294 4941 
L 294 4493 
L 1088 4493 
L 1088 3091 
L 358 3091 
L 358 2643 
L 1088 2643 
L 1088 902 
C 762 800 467 710 224 640 
z
" transform="scale(0.015625)"/>
      <path id="NotoSansCJKjp-Regular-5458" d="M 1715 4672 
L 4704 4672 
L 4704 3942 
L 1715 3942 
L 1715 4672 
z
M 1216 5088 
L 1216 3526 
L 5229 3526 
L 5229 5088 
L 1216 5088 
z
M 2912 2093 
L 2912 1504 
C 2912 998 2733 314 422 -141 
C 531 -243 678 -429 736 -538 
C 3130 0 3424 826 3424 1498 
L 3424 2093 
L 2912 2093 
z
M 3386 416 
C 4166 147 5216 -269 5747 -538 
L 5990 -128 
C 5440 134 4384 525 3622 768 
L 3386 416 
z
M 992 2950 
L 992 589 
L 1485 589 
L 1485 2502 
L 4966 2502 
L 4966 634 
L 5478 634 
L 5478 2950 
L 992 2950 
z
" transform="scale(0.015625)"/>
     </defs>
     <use xlink:href="#NotoSansCJKjp-Regular-7ba1"/>
     <use xlink:href="#NotoSansCJKjp-Regular-7406" x="99.999985"/>
     <use xlink:href="#NotoSansCJKjp-Regular-5458" x="199.999969"/>
    </g>
   </g>
   <g id="text_2">
    <!-- 用户管理 -->
    <g transform="translate(217.56 110.39325) scale(0.12 -0.12)">
     <defs>
      <path id="NotoSansCJKjp-Regular-7528" d="M 979 4928 
L 979 2605 
C 979 1702 915 570 205 -230 
C 314 -288 506 -448 576 -544 
C 1069 0 1286 736 1382 1453 
L 2989 1453 
L 2989 -454 
L 3475 -454 
L 3475 1453 
L 5203 1453 
L 5203 141 
C 5203 26 5158 -13 5030 -19 
C 4909 -26 4474 -32 4026 -13 
C 4090 -141 4166 -352 4192 -474 
C 4794 -480 5165 -474 5382 -397 
C 5600 -320 5677 -173 5677 141 
L 5677 4928 
L 979 4928 
z
M 1453 4467 
L 2989 4467 
L 2989 3437 
L 1453 3437 
L 1453 4467 
z
M 5203 4467 
L 5203 3437 
L 3475 3437 
L 3475 4467 
L 5203 4467 
z
M 1453 2982 
L 2989 2982 
L 2989 1907 
L 1427 1907 
C 1446 2150 1453 2387 1453 2605 
L 1453 2982 
z
M 5203 2982 
L 5203 1907 
L 3475 1907 
L 3475 2982 
L 5203 2982 
z
" transform="scale(0.015625)"/>
      <path id="NotoSansCJKjp-Regular-6237" d="M 1581 3936 
L 4922 3936 
L 4922 2650 
L 1574 2650 
L 1581 2989 
L 1581 3936 
z
M 2822 5286 
C 2950 5005 3091 4646 3168 4384 
L 1082 4384 
L 1082 2989 
C 1082 2022 998 691 218 -262 
C 333 -314 544 -461 634 -550 
C 1261 218 1485 1280 1555 2202 
L 4922 2202 
L 4922 1779 
L 5408 1779 
L 5408 4384 
L 3379 4384 
L 3674 4474 
C 3597 4723 3437 5114 3283 5408 
L 2822 5286 
z
" transform="scale(0.015625)"/>
     </defs>
     <use xlink:href="#NotoSansCJKjp-Regular-7528"/>
     <use xlink:href="#NotoSansCJKjp-Regular-6237" x="99.999985"/>
     <use xlink:href="#NotoSansCJKjp-Regular-7ba1" x="199.999969"/>
     <use xlink:href="#NotoSansCJKjp-Regular-7406" x="299.999954"/>
    </g>
   </g>
   <g id="text_3">
    <!-- 添加用户信息 -->
    <g transform="translate(476.4 70.193012) scale(0.11 -0.11)">
     <defs>
      <path id="NotoSansCJKjp-Regular-6dfb" d="M 2560 1837 
C 2419 1331 2157 768 1754 435 
L 2106 160 
C 2547 538 2797 1158 2944 1702 
L 2560 1837 
z
M 4090 1594 
C 4288 1165 4467 595 4518 218 
L 4909 358 
C 4851 730 4666 1293 4454 1722 
L 4090 1594 
z
M 4877 1741 
C 5261 1254 5651 582 5798 141 
L 6208 352 
C 6042 794 5651 1446 5254 1926 
L 4877 1741 
z
M 3360 2509 
L 3360 19 
C 3360 -51 3334 -77 3251 -83 
C 3162 -83 2886 -83 2560 -77 
C 2624 -205 2682 -384 2701 -506 
C 3136 -506 3418 -506 3584 -429 
C 3757 -358 3808 -230 3808 19 
L 3808 2509 
L 3360 2509 
z
M 544 4973 
C 915 4787 1363 4486 1574 4269 
L 1862 4659 
C 1638 4870 1190 5146 826 5318 
L 544 4973 
z
M 243 3238 
C 627 3072 1088 2797 1312 2592 
L 1587 2982 
C 1357 3187 896 3437 506 3590 
L 243 3238 
z
M 384 -160 
L 813 -429 
C 1094 141 1414 890 1658 1530 
L 1274 1798 
C 1005 1107 640 314 384 -160 
z
M 1766 3789 
L 1766 3341 
L 3046 3341 
C 2701 2771 2214 2342 1574 2048 
C 1677 1958 1843 1766 1901 1670 
C 2637 2061 3194 2605 3584 3341 
L 4294 3341 
C 4659 2675 5261 2067 5894 1754 
C 5965 1875 6112 2048 6221 2138 
C 5670 2368 5139 2829 4800 3341 
L 6061 3341 
L 6061 3789 
L 3795 3789 
C 3898 4038 3981 4314 4051 4608 
C 4685 4691 5286 4800 5747 4947 
L 5370 5318 
C 4614 5075 3187 4922 1990 4851 
C 2042 4742 2106 4563 2118 4442 
C 2573 4461 3059 4499 3533 4544 
C 3469 4275 3386 4019 3283 3789 
L 1766 3789 
z
" transform="scale(0.015625)"/>
      <path id="NotoSansCJKjp-Regular-52a0" d="M 3661 4582 
L 3661 -416 
L 4122 -416 
L 4122 58 
L 5363 58 
L 5363 -365 
L 5843 -365 
L 5843 4582 
L 3661 4582 
z
M 4122 518 
L 4122 4115 
L 5363 4115 
L 5363 518 
L 4122 518 
z
M 1248 5293 
L 1242 4160 
L 339 4160 
L 339 3693 
L 1229 3693 
C 1184 2080 986 659 179 -186 
C 301 -262 474 -410 550 -518 
C 1414 422 1638 1958 1696 3693 
L 2669 3693 
C 2618 1229 2560 352 2426 166 
C 2368 83 2304 58 2208 64 
C 2093 64 1818 64 1517 90 
C 1600 -45 1645 -250 1658 -390 
C 1946 -410 2240 -416 2419 -390 
C 2605 -365 2726 -307 2842 -141 
C 3040 134 3085 1069 3136 3917 
C 3136 3987 3136 4160 3136 4160 
L 1709 4160 
L 1722 5293 
L 1248 5293 
z
" transform="scale(0.015625)"/>
      <path id="NotoSansCJKjp-Regular-4fe1" d="M 2592 5075 
L 2592 4678 
L 5549 4678 
L 5549 5075 
L 2592 5075 
z
M 2515 3296 
L 2515 2899 
L 5664 2899 
L 5664 3296 
L 2515 3296 
z
M 2515 2406 
L 2515 2010 
L 5651 2010 
L 5651 2406 
L 2515 2406 
z
M 1990 4186 
L 1990 3782 
L 6157 3782 
L 6157 4186 
L 1990 4186 
z
M 2451 1517 
L 2451 -512 
L 2912 -512 
L 2912 -211 
L 5242 -211 
L 5242 -493 
L 5722 -493 
L 5722 1517 
L 2451 1517 
z
M 2912 192 
L 2912 1126 
L 5242 1126 
L 5242 192 
L 2912 192 
z
M 1773 5357 
C 1395 4390 774 3437 128 2822 
C 211 2714 346 2458 397 2349 
C 640 2592 877 2880 1107 3194 
L 1107 -493 
L 1568 -493 
L 1568 3898 
C 1818 4320 2042 4768 2221 5216 
L 1773 5357 
z
" transform="scale(0.015625)"/>
      <path id="NotoSansCJKjp-Regular-606f" d="M 1914 1210 
L 1914 154 
C 1914 -346 2086 -474 2758 -474 
C 2899 -474 3859 -474 4013 -474 
C 4538 -474 4685 -301 4749 403 
C 4621 435 4416 506 4314 576 
C 4282 38 4237 -38 3968 -38 
C 3757 -38 2950 -38 2790 -38 
C 2445 -38 2387 -6 2387 154 
L 2387 1210 
L 1914 1210 
z
M 2573 1440 
C 2950 1178 3360 787 3546 506 
L 3917 781 
C 3725 1069 3302 1440 2925 1683 
L 2573 1440 
z
M 4640 1088 
C 5107 678 5594 102 5786 -301 
L 6202 -32 
C 5990 384 5491 941 5024 1331 
L 4640 1088 
z
M 1043 1261 
C 902 794 634 282 237 -19 
L 634 -301 
C 1050 51 1299 608 1466 1107 
L 1043 1261 
z
M 1741 3578 
L 4730 3578 
L 4730 3046 
L 1741 3046 
L 1741 3578 
z
M 1741 2675 
L 4730 2675 
L 4730 2150 
L 1741 2150 
L 1741 2675 
z
M 1741 4467 
L 4730 4467 
L 4730 3949 
L 1741 3949 
L 1741 4467 
z
M 2976 5440 
C 2931 5274 2848 5043 2771 4851 
L 1274 4851 
L 1274 1760 
L 5216 1760 
L 5216 4851 
L 3277 4851 
L 3539 5344 
L 2976 5440 
z
" transform="scale(0.015625)"/>
     </defs>
     <use xlink:href="#NotoSansCJKjp-Regular-6dfb"/>
     <use xlink:href="#NotoSansCJKjp-Regular-52a0" x="99.999985"/>
     <use xlink:href="#NotoSansCJKjp-Regular-7528" x="199.999969"/>
     <use xlink:href="#NotoSansCJKjp-Regular-6237" x="299.999954"/>
     <use xlink:href="#NotoSansCJKjp-Regular-4fe1" x="399.999939"/>
     <use xlink:href="#NotoSansCJKjp-Regular-606f" x="499.999924"/>
    </g>
   </g>
   <g id="text_4">
    <!-- «包含» -->
    <g transform="translate(355.193437 84.040537) scale(0.09 -0.09)">
     <defs>
      <path id="NotoSansCJKjp-Regular-ab" d="M 1299 474 
L 1549 672 
L 704 1798 
L 1549 2918 
L 1299 3136 
L 320 2022 
L 320 1581 
L 1299 474 
z
M 2426 474 
L 2675 672 
L 1830 1798 
L 2675 2918 
L 2426 3136 
L 1453 2022 
L 1453 1581 
L 2426 474 
z
" transform="scale(0.015625)"/>
      <path id="NotoSansCJKjp-Regular-5305" d="M 1165 1984 
L 1165 333 
C 1165 -294 1466 -442 2483 -442 
C 2707 -442 4640 -442 4877 -442 
C 5786 -442 5978 -218 6074 704 
C 5933 730 5728 806 5606 883 
C 5549 147 5453 13 4877 13 
C 4442 13 2784 13 2464 13 
C 1766 13 1638 70 1638 339 
L 1638 1549 
L 3866 1549 
L 3866 3507 
L 1318 3507 
C 1478 3718 1626 3949 1766 4186 
L 5178 4186 
C 5126 2374 5062 1709 4922 1549 
C 4870 1485 4800 1466 4691 1466 
C 4570 1466 4269 1466 3942 1498 
C 4019 1370 4070 1184 4077 1037 
C 4416 1024 4736 1018 4922 1043 
C 5114 1056 5235 1107 5350 1254 
C 5542 1491 5600 2253 5664 4410 
C 5670 4486 5670 4646 5670 4646 
L 2022 4646 
C 2125 4851 2221 5056 2304 5267 
L 1805 5408 
C 1453 4499 858 3610 198 3053 
C 320 2976 531 2803 621 2707 
C 838 2912 1050 3155 1254 3424 
L 1254 3078 
L 3386 3078 
L 3386 1984 
L 1165 1984 
z
" transform="scale(0.015625)"/>
      <path id="NotoSansCJKjp-Regular-542b" d="M 1984 4006 
L 1984 3635 
L 4467 3635 
L 4467 3981 
C 4941 3693 5446 3443 5907 3270 
C 5984 3398 6093 3571 6195 3680 
C 5203 4000 4096 4640 3379 5389 
L 2918 5389 
C 2387 4730 1318 4019 230 3610 
C 320 3507 442 3334 493 3226 
C 1011 3437 1523 3706 1984 4006 
z
M 3174 4986 
C 3482 4659 3904 4339 4371 4045 
L 2042 4045 
C 2502 4352 2899 4678 3174 4986 
z
M 1222 1734 
L 1222 -518 
L 1690 -518 
L 1690 -269 
L 4736 -269 
L 4736 -518 
L 5222 -518 
L 5222 1734 
L 4397 1734 
C 4653 2138 4922 2598 5120 3002 
L 4762 3130 
L 4672 3104 
L 1101 3104 
L 1101 2675 
L 4397 2675 
C 4230 2381 4032 2029 3846 1741 
L 3866 1734 
L 1222 1734 
z
M 1690 154 
L 1690 1312 
L 4736 1312 
L 4736 154 
L 1690 154 
z
" transform="scale(0.015625)"/>
      <path id="NotoSansCJKjp-Regular-bb" d="M 640 474 
L 1613 1581 
L 1613 2022 
L 640 3136 
L 384 2918 
L 1229 1798 
L 384 672 
L 640 474 
z
M 1766 474 
L 2746 1581 
L 2746 2022 
L 1766 3136 
L 1517 2918 
L 2362 1798 
L 1517 672 
L 1766 474 
z
" transform="scale(0.015625)"/>
     </defs>
     <use xlink:href="#NotoSansCJKjp-Regular-ab"/>
     <use xlink:href="#NotoSansCJKjp-Regular-5305" x="47.899994"/>
     <use xlink:href="#NotoSansCJKjp-Regular-542b" x="147.899979"/>
     <use xlink:href="#NotoSansCJKjp-Regular-bb" x="247.899963"/>
    </g>
   </g>
   <g id="text_5">
    <!-- 删除用户信息 -->
    <g transform="translate(476.4 96.804212) scale(0.11 -0.11)">
     <defs>
      <path id="NotoSansCJKjp-Regular-5220" d="M 4538 4666 
L 4538 1050 
L 4928 1050 
L 4928 4666 
L 4538 4666 
z
M 5466 5267 
L 5466 32 
C 5466 -64 5434 -90 5350 -90 
C 5267 -90 4998 -96 4691 -83 
C 4755 -205 4819 -397 4832 -512 
C 5242 -512 5504 -499 5664 -429 
C 5824 -358 5888 -230 5888 32 
L 5888 5267 
L 5466 5267 
z
M 282 2880 
L 282 2438 
L 691 2438 
L 691 2118 
C 691 1325 659 378 250 -275 
C 352 -320 525 -442 602 -518 
C 1037 173 1094 1274 1094 2125 
L 1094 2438 
L 1690 2438 
L 1690 77 
C 1690 6 1664 -19 1600 -19 
C 1530 -19 1325 -26 1094 -19 
C 1152 -128 1203 -326 1216 -442 
C 1555 -442 1773 -429 1907 -352 
C 2048 -282 2093 -147 2093 70 
L 2093 2438 
L 2541 2438 
L 2541 2394 
C 2541 1549 2515 454 2157 -294 
C 2253 -339 2432 -442 2509 -506 
C 2893 282 2944 1504 2944 2400 
L 2944 2438 
L 3539 2438 
L 3539 77 
C 3539 0 3514 -19 3450 -26 
C 3379 -26 3174 -26 2944 -19 
C 3002 -134 3053 -326 3066 -442 
C 3411 -442 3622 -429 3757 -358 
C 3898 -282 3942 -154 3942 70 
L 3942 2438 
L 4275 2438 
L 4275 2880 
L 3942 2880 
L 3942 5171 
L 2541 5171 
L 2541 2880 
L 2093 2880 
L 2093 5171 
L 691 5171 
L 691 2880 
L 282 2880 
z
M 1094 4742 
L 1690 4742 
L 1690 2880 
L 1094 2880 
L 1094 4742 
z
M 2944 4742 
L 3539 4742 
L 3539 2880 
L 2944 2880 
L 2944 4742 
z
" transform="scale(0.015625)"/>
      <path id="NotoSansCJKjp-Regular-9664" d="M 4128 4922 
C 4544 4301 5286 3597 5952 3181 
C 6022 3302 6131 3482 6221 3584 
C 5536 3955 4794 4653 4326 5363 
L 3891 5363 
C 3546 4710 2829 3955 2099 3526 
C 2182 3430 2291 3264 2342 3149 
C 3072 3603 3763 4320 4128 4922 
z
M 2912 1536 
C 2720 1018 2413 512 2054 173 
C 2150 109 2323 -32 2400 -109 
C 2765 269 3123 851 3334 1434 
L 2912 1536 
z
M 4838 1370 
C 5171 915 5555 307 5709 -77 
L 6106 128 
C 5939 512 5555 1107 5203 1549 
L 4838 1370 
z
M 2490 2298 
L 2490 1882 
L 3910 1882 
L 3910 38 
C 3910 -45 3891 -64 3808 -70 
C 3718 -70 3456 -70 3155 -64 
C 3219 -192 3296 -390 3315 -512 
C 3718 -512 3981 -506 4147 -429 
C 4320 -352 4371 -218 4371 32 
L 4371 1882 
L 5901 1882 
L 5901 2298 
L 4371 2298 
L 4371 3098 
L 5402 3098 
L 5402 3507 
L 2918 3507 
L 2918 3098 
L 3910 3098 
L 3910 2298 
L 2490 2298 
z
M 518 5101 
L 518 -512 
L 947 -512 
L 947 4666 
L 1786 4666 
C 1651 4230 1459 3648 1274 3181 
C 1734 2682 1856 2253 1856 1901 
C 1856 1709 1818 1536 1722 1466 
C 1670 1427 1600 1414 1517 1408 
C 1414 1402 1293 1408 1146 1414 
C 1216 1293 1261 1107 1267 992 
C 1408 986 1568 992 1696 1005 
C 1830 1018 1939 1056 2029 1120 
C 2208 1242 2285 1510 2285 1856 
C 2285 2253 2176 2707 1709 3238 
C 1926 3750 2163 4403 2349 4934 
L 2035 5120 
L 1965 5101 
L 518 5101 
z
" transform="scale(0.015625)"/>
     </defs>
     <use xlink:href="#NotoSansCJKjp-Regular-5220"/>
     <use xlink:href="#NotoSansCJKjp-Regular-9664" x="99.999985"/>
     <use xlink:href="#NotoSansCJKjp-Regular-7528" x="199.999969"/>
     <use xlink:href="#NotoSansCJKjp-Regular-6237" x="299.999954"/>
     <use xlink:href="#NotoSansCJKjp-Regular-4fe1" x="399.999939"/>
     <use xlink:href="#NotoSansCJKjp-Regular-606f" x="499.999924"/>
    </g>
   </g>
   <g id="text_6">
    <!-- «包含» -->
    <g transform="translate(355.193437 97.346137) scale(0.09 -0.09)">
     <use xlink:href="#NotoSansCJKjp-Regular-ab"/>
     <use xlink:href="#NotoSansCJKjp-Regular-5305" x="47.899994"/>
     <use xlink:href="#NotoSansCJKjp-Regular-542b" x="147.899979"/>
     <use xlink:href="#NotoSansCJKjp-Regular-bb" x="247.899963"/>
    </g>
   </g>
   <g id="text_7">
    <!-- 修改用户信息 -->
    <g transform="translate(476.4 123.415412) scale(0.11 -0.11)">
     <defs>
      <path id="NotoSansCJKjp-Regular-4fee" d="M 4467 2470 
C 4122 2138 3475 1837 2906 1664 
C 2995 1587 3110 1472 3174 1376 
C 3782 1581 4442 1914 4832 2317 
L 4467 2470 
z
M 5082 1850 
C 4646 1395 3802 1037 2989 851 
C 3085 762 3181 627 3238 531 
C 4102 762 4954 1165 5440 1702 
L 5082 1850 
z
M 5677 1152 
C 5107 499 3930 90 2643 -96 
C 2739 -205 2842 -371 2893 -486 
C 4250 -243 5453 211 6093 973 
L 5677 1152 
z
M 3539 4275 
L 5050 4275 
C 4864 3942 4614 3661 4314 3424 
C 3968 3680 3706 3968 3526 4256 
L 3539 4275 
z
M 1984 4614 
L 1984 550 
L 2413 550 
L 2413 3565 
C 2522 3501 2669 3386 2739 3315 
C 2931 3488 3117 3693 3290 3930 
C 3469 3674 3699 3418 3981 3187 
C 3533 2899 3008 2694 2426 2547 
C 2509 2458 2656 2266 2707 2163 
C 3309 2349 3866 2592 4339 2918 
C 4794 2618 5350 2374 6016 2221 
C 6074 2342 6195 2515 6285 2611 
C 5658 2726 5120 2931 4685 3181 
C 5043 3488 5338 3846 5555 4275 
L 6080 4275 
L 6080 4678 
L 3776 4678 
C 3885 4870 3974 5069 4058 5267 
L 3616 5382 
C 3354 4710 2912 4064 2413 3635 
L 2413 4614 
L 1984 4614 
z
M 1491 5338 
C 1178 4346 672 3366 115 2726 
C 192 2605 320 2349 365 2234 
C 576 2483 787 2778 979 3104 
L 979 -512 
L 1434 -512 
L 1434 3955 
C 1626 4358 1798 4787 1933 5216 
L 1491 5338 
z
" transform="scale(0.015625)"/>
      <path id="NotoSansCJKjp-Regular-6539" d="M 3693 5376 
C 3494 4365 3136 3411 2624 2778 
L 2624 4813 
L 442 4813 
L 442 4365 
L 2157 4365 
L 2157 3104 
L 448 3104 
L 448 1050 
C 448 506 608 371 1178 371 
C 1299 371 2042 371 2170 371 
C 2662 371 2803 576 2861 1382 
C 2726 1421 2528 1498 2426 1574 
C 2400 928 2362 826 2131 826 
C 1965 826 1344 826 1222 826 
C 960 826 909 858 909 1056 
L 909 2662 
L 2157 2662 
L 2157 2419 
L 2624 2419 
L 2624 2630 
C 2746 2554 2893 2445 2963 2381 
C 3130 2579 3277 2816 3418 3078 
C 3597 2355 3834 1709 4154 1158 
C 3712 595 3117 186 2304 -109 
C 2394 -211 2547 -422 2598 -538 
C 3373 -218 3968 192 4429 730 
C 4813 198 5299 -224 5901 -506 
C 5971 -378 6125 -186 6234 -90 
C 5613 173 5120 595 4736 1139 
C 5184 1818 5466 2675 5645 3744 
L 6157 3744 
L 6157 4205 
L 3898 4205 
C 4013 4550 4109 4915 4192 5286 
L 3693 5376 
z
M 3725 3744 
L 5146 3744 
C 5005 2880 4787 2170 4454 1594 
C 4115 2208 3878 2938 3725 3738 
L 3725 3744 
z
" transform="scale(0.015625)"/>
     </defs>
     <use xlink:href="#NotoSansCJKjp-Regular-4fee"/>
     <use xlink:href="#NotoSansCJKjp-Regular-6539" x="99.999985"/>
     <use xlink:href="#NotoSansCJKjp-Regular-7528" x="199.999969"/>
     <use xlink:href="#NotoSansCJKjp-Regular-6237" x="299.999954"/>
     <use xlink:href="#NotoSansCJKjp-Regular-4fe1" x="399.999939"/>
     <use xlink:href="#NotoSansCJKjp-Regular-606f" x="499.999924"/>
    </g>
   </g>
   <g id="text_8">
    <!-- «包含» -->
    <g transform="translate(355.193437 110.651737) scale(0.09 -0.09)">
     <use xlink:href="#NotoSansCJKjp-Regular-ab"/>
     <use xlink:href="#NotoSansCJKjp-Regular-5305" x="47.899994"/>
     <use xlink:href="#NotoSansCJKjp-Regular-542b" x="147.899979"/>
     <use xlink:href="#NotoSansCJKjp-Regular-bb" x="247.899963"/>
    </g>
   </g>
   <g id="text_9">
    <!-- 查询用户信息 -->
    <g transform="translate(476.4 150.026612) scale(0.11 -0.11)">
     <defs>
      <path id="NotoSansCJKjp-Regular-67e5" d="M 1888 1395 
L 4480 1395 
L 4480 858 
L 1888 858 
L 1888 1395 
z
M 1888 2253 
L 4480 2253 
L 4480 1728 
L 1888 1728 
L 1888 2253 
z
M 1414 2598 
L 1414 512 
L 4979 512 
L 4979 2598 
L 1414 2598 
z
M 474 128 
L 474 -307 
L 5952 -307 
L 5952 128 
L 474 128 
z
M 2944 5376 
L 2944 4563 
L 365 4563 
L 365 4141 
L 2426 4141 
C 1875 3533 1018 2982 230 2714 
C 333 2624 474 2445 544 2330 
C 1414 2675 2362 3347 2944 4109 
L 2944 2797 
L 3418 2797 
L 3418 4115 
C 4006 3373 4966 2707 5850 2381 
C 5920 2502 6061 2688 6170 2778 
C 5363 3027 4493 3558 3936 4141 
L 6042 4141 
L 6042 4563 
L 3418 4563 
L 3418 5376 
L 2944 5376 
z
" transform="scale(0.015625)"/>
      <path id="NotoSansCJKjp-Regular-8be2" d="M 730 4960 
C 1043 4666 1427 4250 1606 3981 
L 1952 4301 
C 1773 4563 1376 4960 1062 5242 
L 730 4960 
z
M 269 3373 
L 269 2906 
L 1171 2906 
L 1171 710 
C 1171 422 979 237 864 154 
C 947 64 1075 -141 1114 -256 
C 1210 -128 1382 13 2464 826 
C 2419 915 2342 1094 2304 1229 
L 1638 742 
L 1638 3373 
L 269 3373 
z
M 3238 5376 
C 2970 4563 2522 3757 1997 3238 
C 2118 3168 2323 3014 2413 2925 
C 2669 3213 2925 3571 3149 3974 
L 5542 3974 
C 5459 1299 5357 294 5146 64 
C 5075 -19 5011 -38 4883 -38 
C 4736 -38 4390 -38 4000 -6 
C 4083 -134 4141 -339 4154 -474 
C 4499 -486 4864 -499 5069 -474 
C 5286 -454 5434 -397 5574 -211 
C 5824 102 5920 1126 6016 4160 
C 6022 4237 6022 4416 6022 4416 
L 3386 4416 
C 3514 4685 3629 4966 3731 5248 
L 3238 5376 
z
M 4301 1869 
L 4301 1178 
L 3194 1178 
L 3194 1869 
L 4301 1869 
z
M 4301 2259 
L 3194 2259 
L 3194 2944 
L 4301 2944 
L 4301 2259 
z
M 2752 3347 
L 2752 390 
L 3194 390 
L 3194 781 
L 4730 781 
L 4730 3347 
L 2752 3347 
z
" transform="scale(0.015625)"/>
     </defs>
     <use xlink:href="#NotoSansCJKjp-Regular-67e5"/>
     <use xlink:href="#NotoSansCJKjp-Regular-8be2" x="99.999985"/>
     <use xlink:href="#NotoSansCJKjp-Regular-7528" x="199.999969"/>
     <use xlink:href="#NotoSansCJKjp-Regular-6237" x="299.999954"/>
     <use xlink:href="#NotoSansCJKjp-Regular-4fe1" x="399.999939"/>
     <use xlink:href="#NotoSansCJKjp-Regular-606f" x="499.999924"/>
    </g>
   </g>
   <g id="text_10">
    <!-- «包含» -->
    <g transform="translate(355.193437 123.957337) scale(0.09 -0.09)">
     <use xlink:href="#NotoSansCJKjp-Regular-ab"/>
     <use xlink:href="#NotoSansCJKjp-Regular-5305" x="47.899994"/>
     <use xlink:href="#NotoSansCJKjp-Regular-542b" x="147.899979"/>
     <use xlink:href="#NotoSansCJKjp-Regular-bb" x="247.899963"/>
    </g>
   </g>
   <g id="text_11">
    <!-- 学习资源维护 -->
    <g transform="translate(205.56 176.92125) scale(0.12 -0.12)">
     <defs>
      <path id="NotoSansCJKjp-Regular-5b66" d="M 2963 2221 
L 2963 1760 
L 384 1760 
L 384 1306 
L 2963 1306 
L 2963 70 
C 2963 -19 2931 -51 2803 -58 
C 2669 -64 2234 -64 1741 -51 
C 1824 -186 1914 -384 1952 -518 
C 2534 -518 2899 -512 3136 -442 
C 3373 -365 3450 -230 3450 64 
L 3450 1306 
L 6048 1306 
L 6048 1760 
L 3450 1760 
L 3450 1926 
C 4019 2195 4614 2605 5018 3008 
L 4704 3238 
L 4602 3213 
L 1459 3213 
L 1459 2790 
L 4122 2790 
C 3853 2586 3526 2374 3213 2221 
L 2963 2221 
z
M 2598 5248 
C 2790 4966 2989 4589 3072 4314 
L 1766 4314 
L 1971 4416 
C 1869 4666 1600 5030 1357 5299 
L 954 5114 
C 1152 4870 1370 4557 1498 4314 
L 512 4314 
L 512 2880 
L 973 2880 
L 973 3878 
L 5459 3878 
L 5459 2880 
L 5939 2880 
L 5939 4314 
L 4941 4314 
C 5158 4570 5395 4877 5594 5165 
L 5088 5338 
C 4934 5030 4646 4608 4403 4314 
L 3277 4314 
L 3539 4416 
C 3456 4691 3232 5101 3014 5408 
L 2598 5248 
z
" transform="scale(0.015625)"/>
      <path id="NotoSansCJKjp-Regular-4e60" d="M 1478 3603 
C 2054 3206 2810 2624 3174 2266 
L 3514 2630 
C 3130 2982 2368 3539 1805 3917 
L 1478 3603 
z
M 659 858 
L 832 378 
C 1818 717 3270 1216 4589 1683 
L 4499 2131 
C 3104 1651 1581 1139 659 858 
z
M 762 4909 
L 762 4454 
L 5197 4454 
C 5158 1485 5101 320 4896 96 
C 4832 13 4762 -13 4640 -6 
C 4467 -6 4070 -6 3622 26 
C 3712 -102 3770 -301 3776 -435 
C 4147 -461 4563 -467 4813 -442 
C 5050 -422 5203 -352 5350 -141 
C 5594 186 5645 1267 5683 4634 
C 5683 4704 5683 4909 5683 4909 
L 762 4909 
z
" transform="scale(0.015625)"/>
      <path id="NotoSansCJKjp-Regular-8d44" d="M 544 4813 
C 1011 4640 1594 4339 1882 4115 
L 2138 4486 
C 1837 4710 1248 4986 787 5146 
L 544 4813 
z
M 314 3168 
L 454 2726 
C 966 2899 1626 3110 2246 3322 
L 2170 3744 
C 1478 3520 787 3302 314 3168 
z
M 1165 2381 
L 1165 595 
L 1638 595 
L 1638 1933 
L 4813 1933 
L 4813 640 
L 5312 640 
L 5312 2381 
L 1165 2381 
z
M 3027 1747 
C 2842 685 2349 122 320 -128 
C 397 -230 499 -410 531 -525 
C 2694 -218 3283 467 3501 1747 
L 3027 1747 
z
M 3302 480 
C 4102 218 5165 -205 5702 -486 
L 5984 -90 
C 5427 192 4358 589 3565 832 
L 3302 480 
z
M 3098 5350 
C 2931 4902 2605 4365 2080 3974 
C 2189 3917 2342 3776 2419 3674 
C 2694 3898 2912 4147 3098 4410 
L 3853 4410 
C 3654 3738 3232 3149 2086 2842 
C 2176 2765 2298 2605 2342 2496 
C 3226 2758 3738 3181 4045 3699 
C 4448 3155 5069 2739 5786 2541 
C 5850 2662 5978 2829 6074 2918 
C 5280 3091 4582 3520 4230 4070 
C 4269 4179 4307 4294 4339 4410 
L 5293 4410 
C 5197 4198 5088 3987 4998 3840 
L 5414 3718 
C 5574 3968 5766 4358 5933 4710 
L 5581 4806 
L 5504 4781 
L 3322 4781 
C 3418 4947 3494 5120 3558 5286 
L 3098 5350 
z
" transform="scale(0.015625)"/>
      <path id="NotoSansCJKjp-Regular-6e90" d="M 3437 2650 
L 5395 2650 
L 5395 2080 
L 3437 2080 
L 3437 2650 
z
M 3437 3558 
L 5395 3558 
L 5395 3002 
L 3437 3002 
L 3437 3558 
z
M 3232 1357 
C 3053 896 2771 429 2451 109 
C 2560 51 2746 -77 2835 -147 
C 3142 198 3462 730 3661 1248 
L 3232 1357 
z
M 5043 1242 
C 5344 832 5658 282 5773 -64 
L 6214 134 
C 6080 486 5754 1018 5453 1408 
L 5043 1242 
z
M 557 4973 
C 941 4781 1395 4467 1619 4237 
L 1907 4621 
C 1683 4851 1216 5133 832 5312 
L 557 4973 
z
M 243 3245 
C 634 3072 1094 2784 1318 2566 
L 1600 2950 
C 1370 3162 896 3437 512 3597 
L 243 3245 
z
M 378 -154 
L 806 -422 
C 1114 179 1472 973 1734 1651 
L 1350 1920 
C 1062 1190 659 346 378 -154 
z
M 3002 3930 
L 3002 1709 
L 4154 1709 
L 4154 0 
C 4154 -70 4128 -96 4051 -102 
C 3968 -102 3686 -102 3386 -96 
C 3443 -218 3501 -390 3520 -506 
C 3942 -512 4224 -512 4397 -442 
C 4570 -371 4614 -250 4614 -13 
L 4614 1709 
L 5843 1709 
L 5843 3930 
L 4499 3930 
L 4704 4621 
L 4672 4627 
L 6086 4627 
L 6086 5062 
L 2163 5062 
L 2163 3309 
C 2163 2253 2093 800 1370 -230 
C 1478 -282 1683 -403 1766 -486 
C 2528 589 2630 2189 2630 3309 
L 2630 4627 
L 4166 4627 
C 4141 4416 4083 4147 4032 3930 
L 3002 3930 
z
" transform="scale(0.015625)"/>
      <path id="NotoSansCJKjp-Regular-7ef4" d="M 288 339 
L 378 -115 
C 966 38 1754 230 2502 422 
L 2458 832 
C 1651 646 832 448 288 339 
z
M 4224 5178 
C 4397 4890 4589 4512 4653 4256 
L 5088 4454 
C 5005 4698 4819 5062 4627 5344 
L 4224 5178 
z
M 390 2707 
C 486 2752 634 2790 1421 2893 
C 1146 2477 896 2144 774 2016 
C 582 1779 435 1613 294 1587 
C 352 1472 422 1261 442 1165 
C 570 1242 787 1306 2342 1613 
C 2336 1709 2336 1894 2349 2010 
L 1088 1786 
C 1587 2374 2074 3091 2490 3814 
L 2106 4045 
C 1978 3795 1837 3539 1683 3302 
L 851 3213 
C 1229 3770 1594 4486 1869 5171 
L 1434 5363 
C 1190 4595 742 3757 595 3539 
C 461 3328 352 3168 243 3149 
C 301 3027 371 2803 390 2707 
z
M 4461 2534 
L 4461 1709 
L 3430 1709 
L 3430 2534 
L 4461 2534 
z
M 3494 5344 
C 3277 4602 2822 3674 2310 3078 
C 2387 2976 2502 2771 2554 2662 
C 2701 2829 2842 3014 2976 3213 
L 2976 -518 
L 3430 -518 
L 3430 -51 
L 6125 -51 
L 6125 397 
L 4909 397 
L 4909 1274 
L 5882 1274 
L 5882 1709 
L 4909 1709 
L 4909 2534 
L 5869 2534 
L 5869 2970 
L 4909 2970 
L 4909 3782 
L 6029 3782 
L 6029 4218 
L 3546 4218 
C 3706 4550 3846 4890 3962 5210 
L 3494 5344 
z
M 4461 2970 
L 3430 2970 
L 3430 3782 
L 4461 3782 
L 4461 2970 
z
M 4461 1274 
L 4461 397 
L 3430 397 
L 3430 1274 
L 4461 1274 
z
" transform="scale(0.015625)"/>
      <path id="NotoSansCJKjp-Regular-62a4" d="M 1203 5370 
L 1203 4083 
L 346 4083 
L 346 3622 
L 1203 3622 
L 1203 2240 
C 845 2138 512 2042 243 1978 
L 378 1504 
L 1203 1754 
L 1203 90 
C 1203 0 1171 -26 1088 -26 
C 1011 -32 749 -32 454 -26 
C 525 -160 576 -365 602 -486 
C 1030 -486 1286 -474 1446 -397 
C 1613 -320 1670 -179 1670 90 
L 1670 1901 
L 2451 2144 
L 2381 2586 
L 1670 2374 
L 1670 3622 
L 2413 3622 
L 2413 4083 
L 1670 4083 
L 1670 5370 
L 1203 5370 
z
M 3782 5190 
C 4013 4902 4262 4531 4378 4269 
L 2861 4269 
L 2861 2560 
C 2861 1702 2778 595 2067 -186 
C 2176 -256 2374 -429 2451 -525 
C 3117 205 3296 1267 3334 2157 
L 5440 2157 
L 5440 1754 
L 5920 1754 
L 5920 4269 
L 4390 4269 
L 4826 4461 
C 4710 4710 4461 5075 4211 5357 
L 3782 5190 
z
M 5440 2611 
L 3341 2611 
L 3341 3834 
L 5440 3834 
L 5440 2611 
z
" transform="scale(0.015625)"/>
     </defs>
     <use xlink:href="#NotoSansCJKjp-Regular-5b66"/>
     <use xlink:href="#NotoSansCJKjp-Regular-4e60" x="99.999985"/>
     <use xlink:href="#NotoSansCJKjp-Regular-8d44" x="199.999969"/>
     <use xlink:href="#NotoSansCJKjp-Regular-6e90" x="299.999954"/>
     <use xlink:href="#NotoSansCJKjp-Regular-7ef4" x="399.999939"/>
     <use xlink:href="#NotoSansCJKjp-Regular-62a4" x="499.999924"/>
    </g>
   </g>
   <g id="text_12">
    <!-- 添加学习资源 -->
    <g transform="translate(476.4 136.721012) scale(0.11 -0.11)">
     <use xlink:href="#NotoSansCJKjp-Regular-6dfb"/>
     <use xlink:href="#NotoSansCJKjp-Regular-52a0" x="99.999985"/>
     <use xlink:href="#NotoSansCJKjp-Regular-5b66" x="199.999969"/>
     <use xlink:href="#NotoSansCJKjp-Regular-4e60" x="299.999954"/>
     <use xlink:href="#NotoSansCJKjp-Regular-8d44" x="399.999939"/>
     <use xlink:href="#NotoSansCJKjp-Regular-6e90" x="499.999924"/>
    </g>
   </g>
   <g id="text_13">
    <!-- «包含» -->
    <g transform="translate(355.193437 150.568537) scale(0.09 -0.09)">
     <use xlink:href="#NotoSansCJKjp-Regular-ab"/>
     <use xlink:href="#NotoSansCJKjp-Regular-5305" x="47.899994"/>
     <use xlink:href="#NotoSansCJKjp-Regular-542b" x="147.899979"/>
     <use xlink:href="#NotoSansCJKjp-Regular-bb" x="247.899963"/>
    </g>
   </g>
   <g id="text_14">
    <!-- 删除学习资源 -->
    <g transform="translate(476.4 163.332212) scale(0.11 -0.11)">
     <use xlink:href="#NotoSansCJKjp-Regular-5220"/>
     <use xlink:href="#NotoSansCJKjp-Regular-9664" x="99.999985"/>
     <use xlink:href="#NotoSansCJKjp-Regular-5b66" x="199.999969"/>
     <use xlink:href="#NotoSansCJKjp-Regular-4e60" x="299.999954"/>
     <use xlink:href="#NotoSansCJKjp-Regular-8d44" x="399.999939"/>
     <use xlink:href="#NotoSansCJKjp-Regular-6e90" x="499.999924"/>
    </g>
   </g>
   <g id="text_15">
    <!-- «包含» -->
    <g transform="translate(355.193437 163.874137) scale(0.09 -0.09)">
     <use xlink:href="#NotoSansCJKjp-Regular-ab"/>
     <use xlink:href="#NotoSansCJKjp-Regular-5305" x="47.899994"/>
     <use xlink:href="#NotoSansCJKjp-Regular-542b" x="147.899979"/>
     <use xlink:href="#NotoSansCJKjp-Regular-bb" x="247.899963"/>
    </g>
   </g>
   <g id="text_16">
    <!-- 修改学习资源 -->
    <g transform="translate(476.4 189.943412) scale(0.11 -0.11)">
     <use xlink:href="#NotoSansCJKjp-Regular-4fee"/>
     <use xlink:href="#NotoSansCJKjp-Regular-6539" x="99.999985"/>
     <use xlink:href="#NotoSansCJKjp-Regular-5b66" x="199.999969"/>
     <use xlink:href="#NotoSansCJKjp-Regular-4e60" x="299.999954"/>
     <use xlink:href="#NotoSansCJKjp-Regular-8d44" x="399.999939"/>
     <use xlink:href="#NotoSansCJKjp-Regular-6e90" x="499.999924"/>
    </g>
   </g>
   <g id="text_17">
    <!-- «包含» -->
    <g transform="translate(355.193437 177.179737) scale(0.09 -0.09)">
     <use xlink:href="#NotoSansCJKjp-Regular-ab"/>
     <use xlink:href="#NotoSansCJKjp-Regular-5305" x="47.899994"/>
     <use xlink:href="#NotoSansCJKjp-Regular-542b" x="147.899979"/>
     <use xlink:href="#NotoSansCJKjp-Regular-bb" x="247.899963"/>
    </g>
   </g>
   <g id="text_18">
    <!-- 查询学习资源 -->
    <g transform="translate(476.4 216.554612) scale(0.11 -0.11)">
     <use xlink:href="#NotoSansCJKjp-Regular-67e5"/>
     <use xlink:href="#NotoSansCJKjp-Regular-8be2" x="99.999985"/>
     <use xlink:href="#NotoSansCJKjp-Regular-5b66" x="199.999969"/>
     <use xlink:href="#NotoSansCJKjp-Regular-4e60" x="299.999954"/>
     <use xlink:href="#NotoSansCJKjp-Regular-8d44" x="399.999939"/>
     <use xlink:href="#NotoSansCJKjp-Regular-6e90" x="499.999924"/>
    </g>
   </g>
   <g id="text_19">
    <!-- «包含» -->
    <g transform="translate(355.193437 190.485337) scale(0.09 -0.09)">
     <use xlink:href="#NotoSansCJKjp-Regular-ab"/>
     <use xlink:href="#NotoSansCJKjp-Regular-5305" x="47.899994"/>
     <use xlink:href="#NotoSansCJKjp-Regular-542b" x="147.899979"/>
     <use xlink:href="#NotoSansCJKjp-Regular-bb" x="247.899963"/>
    </g>
   </g>
   <g id="text_20">
    <!-- 成就系统管理 -->
    <g transform="translate(205.56 243.44925) scale(0.12 -0.12)">
     <defs>
      <path id="NotoSansCJKjp-Regular-6210" d="M 3482 5370 
C 3482 5005 3494 4640 3514 4288 
L 819 4288 
L 819 2490 
C 819 1658 762 550 230 -237 
C 346 -294 550 -461 634 -557 
C 1222 288 1318 1581 1318 2483 
L 1318 2528 
L 2490 2528 
C 2464 1427 2432 1018 2349 922 
C 2298 864 2240 851 2144 851 
C 2035 851 1760 851 1466 883 
C 1542 762 1594 570 1600 435 
C 1914 416 2208 416 2374 429 
C 2547 448 2656 493 2758 614 
C 2893 787 2925 1331 2957 2771 
C 2957 2835 2963 2976 2963 2976 
L 1318 2976 
L 1318 3821 
L 3546 3821 
C 3622 2784 3776 1837 4019 1101 
C 3597 614 3104 218 2534 -83 
C 2637 -179 2810 -378 2886 -480 
C 3379 -186 3821 166 4211 589 
C 4506 -70 4890 -467 5382 -467 
C 5875 -467 6054 -147 6138 947 
C 6010 992 5830 1101 5722 1210 
C 5683 358 5606 26 5421 26 
C 5094 26 4806 390 4570 1018 
C 5043 1632 5421 2362 5696 3200 
L 5216 3322 
C 5011 2675 4736 2093 4390 1581 
C 4224 2202 4102 2963 4032 3821 
L 6086 3821 
L 6086 4288 
L 4006 4288 
C 3987 4640 3981 4998 3981 5370 
L 3482 5370 
z
M 4294 5056 
C 4704 4845 5197 4518 5440 4288 
L 5741 4621 
C 5491 4838 4986 5152 4582 5350 
L 4294 5056 
z
" transform="scale(0.015625)"/>
      <path id="NotoSansCJKjp-Regular-5c31" d="M 1126 3206 
L 2624 3206 
L 2624 2349 
L 1126 2349 
L 1126 3206 
z
M 800 1594 
C 685 1088 480 582 211 237 
C 314 179 499 38 576 -38 
C 864 346 1107 928 1248 1504 
L 800 1594 
z
M 2451 1510 
C 2630 1171 2822 717 2899 416 
L 3296 570 
C 3219 864 3034 1312 2835 1651 
L 2451 1510 
z
M 4928 4998 
C 5242 4685 5542 4243 5664 3930 
L 6067 4134 
C 5933 4442 5632 4877 5306 5184 
L 4928 4998 
z
M 339 4557 
L 339 4122 
L 3386 4122 
L 3386 4557 
L 2125 4557 
L 2125 5376 
L 1638 5376 
L 1638 4557 
L 339 4557 
z
M 4269 5382 
L 4269 4032 
L 4262 3686 
L 3334 3686 
L 3334 3226 
L 4243 3226 
C 4173 2093 3878 755 2778 -243 
C 2906 -301 3098 -435 3187 -525 
C 4000 237 4390 1184 4576 2118 
L 4576 166 
C 4576 -160 4602 -269 4717 -358 
C 4832 -442 4986 -474 5133 -474 
C 5216 -474 5446 -474 5542 -474 
C 5677 -474 5830 -448 5926 -397 
C 6029 -339 6099 -243 6138 -102 
C 6170 38 6195 429 6208 768 
C 6086 806 5920 890 5830 973 
C 5837 614 5824 307 5805 186 
C 5792 109 5754 51 5709 26 
C 5670 -6 5581 -13 5510 -13 
C 5427 -13 5306 -13 5242 -13 
C 5171 -13 5120 0 5075 26 
C 5037 45 5018 90 5018 147 
L 5018 2912 
L 4691 2912 
L 4717 3226 
L 6118 3226 
L 6118 3686 
L 4730 3686 
L 4736 4038 
L 4736 5382 
L 4269 5382 
z
M 685 3616 
L 685 1939 
L 1658 1939 
L 1658 38 
C 1658 -26 1638 -51 1562 -58 
C 1478 -58 1235 -58 941 -51 
C 1005 -173 1075 -358 1094 -493 
C 1478 -493 1741 -486 1907 -416 
C 2080 -333 2125 -205 2125 32 
L 2125 1939 
L 3091 1939 
L 3091 3616 
L 685 3616 
z
" transform="scale(0.015625)"/>
      <path id="NotoSansCJKjp-Regular-7cfb" d="M 1715 1222 
C 1363 749 787 262 243 -51 
C 371 -128 582 -288 678 -378 
C 1197 -32 1805 512 2208 1043 
L 1715 1222 
z
M 4109 986 
C 4666 582 5350 -6 5677 -371 
L 6093 -64 
C 5741 301 5037 864 4493 1248 
L 4109 986 
z
M 5286 5286 
C 4179 5062 2208 4928 557 4883 
C 602 4768 659 4576 672 4448 
C 1235 4461 1843 4486 2445 4525 
C 2195 4198 1882 3840 1594 3565 
L 1158 3827 
L 832 3533 
C 1344 3232 1939 2790 2310 2445 
C 2125 2291 1933 2150 1760 2016 
L 358 2003 
L 403 1517 
L 2938 1581 
L 2938 -512 
L 3443 -512 
L 3443 1594 
L 5293 1645 
C 5466 1459 5613 1286 5715 1139 
L 6138 1427 
C 5811 1862 5126 2509 4563 2957 
L 4173 2707 
C 4403 2522 4646 2298 4883 2074 
L 2464 2029 
C 3226 2618 4083 3398 4730 4077 
L 4269 4326 
C 3853 3846 3270 3270 2682 2765 
C 2490 2938 2227 3136 1952 3328 
C 2317 3661 2739 4122 3072 4525 
L 3002 4563 
C 3974 4634 4915 4736 5632 4877 
L 5286 5286 
z
" transform="scale(0.015625)"/>
      <path id="NotoSansCJKjp-Regular-7edf" d="M 4467 2253 
L 4467 230 
C 4467 -243 4576 -384 5024 -384 
C 5114 -384 5498 -384 5587 -384 
C 5984 -384 6099 -141 6131 730 
C 6010 762 5818 838 5722 928 
C 5702 154 5677 38 5536 38 
C 5459 38 5158 38 5101 38 
C 4960 38 4941 58 4941 230 
L 4941 2253 
L 4467 2253 
z
M 3264 2240 
C 3226 973 3078 288 2029 -102 
C 2138 -192 2272 -371 2330 -493 
C 3488 -19 3686 806 3738 2240 
L 3264 2240 
z
M 269 339 
L 378 -134 
C 954 51 1709 288 2426 525 
L 2349 941 
C 1574 710 787 474 269 339 
z
M 3808 5274 
C 3930 5011 4090 4666 4154 4448 
L 2605 4448 
L 2605 4013 
L 3757 4013 
C 3469 3616 3027 3027 2880 2886 
C 2758 2771 2598 2726 2477 2694 
C 2528 2592 2618 2349 2637 2227 
C 2816 2304 3085 2336 5408 2554 
C 5510 2381 5606 2214 5670 2086 
L 6074 2310 
C 5882 2682 5466 3283 5120 3731 
L 4742 3539 
C 4883 3354 5030 3142 5165 2931 
L 3405 2784 
C 3693 3136 4058 3635 4326 4013 
L 6067 4013 
L 6067 4448 
L 4224 4448 
L 4634 4576 
C 4557 4781 4397 5133 4250 5389 
L 3808 5274 
z
M 384 2707 
C 480 2752 627 2784 1395 2893 
C 1120 2490 870 2176 755 2054 
C 550 1818 403 1658 262 1632 
C 320 1504 397 1267 422 1165 
C 557 1248 774 1318 2362 1664 
C 2349 1766 2342 1952 2355 2086 
L 1146 1850 
C 1632 2413 2112 3098 2515 3789 
L 2086 4045 
C 1965 3808 1830 3565 1683 3341 
L 896 3258 
C 1293 3808 1690 4506 1984 5178 
L 1498 5402 
C 1216 4627 742 3802 589 3590 
C 448 3373 326 3226 211 3200 
C 275 3066 352 2810 384 2707 
z
" transform="scale(0.015625)"/>
     </defs>
     <use xlink:href="#NotoSansCJKjp-Regular-6210"/>
     <use xlink:href="#NotoSansCJKjp-Regular-5c31" x="99.999985"/>
     <use xlink:href="#NotoSansCJKjp-Regular-7cfb" x="199.999969"/>
     <use xlink:href="#NotoSansCJKjp-Regular-7edf" x="299.999954"/>
     <use xlink:href="#NotoSansCJKjp-Regular-7ba1" x="399.999939"/>
     <use xlink:href="#NotoSansCJKjp-Regular-7406" x="499.999924"/>
    </g>
   </g>
   <g id="text_21">
    <!-- 添加成就规则 -->
    <g transform="translate(476.4 203.249012) scale(0.11 -0.11)">
     <defs>
      <path id="NotoSansCJKjp-Regular-89c4" d="M 3046 5062 
L 3046 1658 
L 3507 1658 
L 3507 4640 
L 5274 4640 
L 5274 1658 
L 5754 1658 
L 5754 5062 
L 3046 5062 
z
M 1331 5312 
L 1331 4314 
L 416 4314 
L 416 3866 
L 1331 3866 
L 1331 3232 
L 1325 2829 
L 275 2829 
L 275 2374 
L 1306 2374 
C 1242 1504 1011 531 230 -109 
C 346 -192 506 -352 576 -448 
C 1184 96 1491 806 1638 1530 
C 1920 1178 2298 685 2451 429 
L 2784 787 
C 2630 986 1984 1760 1722 2022 
L 1760 2374 
L 2739 2374 
L 2739 2829 
L 1779 2829 
L 1786 3238 
L 1786 3866 
L 2662 3866 
L 2662 4314 
L 1786 4314 
L 1786 5312 
L 1331 5312 
z
M 4173 4096 
L 4173 2867 
C 4173 1875 3968 666 2355 -160 
C 2451 -230 2598 -410 2656 -506 
C 3635 0 4141 691 4390 1389 
L 4390 173 
C 4390 -256 4550 -378 4966 -378 
L 5485 -378 
C 6010 -378 6086 -122 6138 877 
C 6022 902 5862 973 5747 1062 
C 5722 173 5690 6 5485 6 
L 5030 6 
C 4870 6 4819 51 4819 224 
L 4819 1856 
L 4525 1856 
C 4595 2202 4621 2547 4621 2861 
L 4621 4096 
L 4173 4096 
z
" transform="scale(0.015625)"/>
      <path id="NotoSansCJKjp-Regular-5219" d="M 2061 730 
C 2464 403 2976 -64 3219 -352 
L 3526 0 
C 3277 275 2758 717 2362 1030 
L 2061 730 
z
M 659 5030 
L 659 1146 
L 1107 1146 
L 1107 4595 
L 2957 4595 
L 2957 1165 
L 3424 1165 
L 3424 5030 
L 659 5030 
z
M 5338 5331 
L 5338 166 
C 5338 45 5286 6 5165 6 
C 5043 0 4640 -6 4186 13 
C 4262 -128 4339 -339 4365 -480 
C 4954 -480 5306 -467 5523 -390 
C 5722 -307 5811 -160 5811 166 
L 5811 5331 
L 5338 5331 
z
M 4141 4800 
L 4141 966 
L 4595 966 
L 4595 4800 
L 4141 4800 
z
M 1792 4160 
L 1792 2342 
C 1792 1466 1632 499 288 -160 
C 378 -237 531 -416 582 -518 
C 2016 179 2246 1350 2246 2330 
L 2246 4160 
L 1792 4160 
z
" transform="scale(0.015625)"/>
     </defs>
     <use xlink:href="#NotoSansCJKjp-Regular-6dfb"/>
     <use xlink:href="#NotoSansCJKjp-Regular-52a0" x="99.999985"/>
     <use xlink:href="#NotoSansCJKjp-Regular-6210" x="199.999969"/>
     <use xlink:href="#NotoSansCJKjp-Regular-5c31" x="299.999954"/>
     <use xlink:href="#NotoSansCJKjp-Regular-89c4" x="399.999939"/>
     <use xlink:href="#NotoSansCJKjp-Regular-5219" x="499.999924"/>
    </g>
   </g>
   <g id="text_22">
    <!-- «包含» -->
    <g transform="translate(355.193437 217.096537) scale(0.09 -0.09)">
     <use xlink:href="#NotoSansCJKjp-Regular-ab"/>
     <use xlink:href="#NotoSansCJKjp-Regular-5305" x="47.899994"/>
     <use xlink:href="#NotoSansCJKjp-Regular-542b" x="147.899979"/>
     <use xlink:href="#NotoSansCJKjp-Regular-bb" x="247.899963"/>
    </g>
   </g>
   <g id="text_23">
    <!-- 删除成就规则 -->
    <g transform="translate(476.4 229.860212) scale(0.11 -0.11)">
     <use xlink:href="#NotoSansCJKjp-Regular-5220"/>
     <use xlink:href="#NotoSansCJKjp-Regular-9664" x="99.999985"/>
     <use xlink:href="#NotoSansCJKjp-Regular-6210" x="199.999969"/>
     <use xlink:href="#NotoSansCJKjp-Regular-5c31" x="299.999954"/>
     <use xlink:href="#NotoSansCJKjp-Regular-89c4" x="399.999939"/>
     <use xlink:href="#NotoSansCJKjp-Regular-5219" x="499.999924"/>
    </g>
   </g>
   <g id="text_24">
    <!-- «包含» -->
    <g transform="translate(355.193437 230.402137) scale(0.09 -0.09)">
     <use xlink:href="#NotoSansCJKjp-Regular-ab"/>
     <use xlink:href="#NotoSansCJKjp-Regular-5305" x="47.899994"/>
     <use xlink:href="#NotoSansCJKjp-Regular-542b" x="147.899979"/>
     <use xlink:href="#NotoSansCJKjp-Regular-bb" x="247.899963"/>
    </g>
   </g>
   <g id="text_25">
    <!-- 修改成就规则 -->
    <g transform="translate(476.4 256.471412) scale(0.11 -0.11)">
     <use xlink:href="#NotoSansCJKjp-Regular-4fee"/>
     <use xlink:href="#NotoSansCJKjp-Regular-6539" x="99.999985"/>
     <use xlink:href="#NotoSansCJKjp-Regular-6210" x="199.999969"/>
     <use xlink:href="#NotoSansCJKjp-Regular-5c31" x="299.999954"/>
     <use xlink:href="#NotoSansCJKjp-Regular-89c4" x="399.999939"/>
     <use xlink:href="#NotoSansCJKjp-Regular-5219" x="499.999924"/>
    </g>
   </g>
   <g id="text_26">
    <!-- «包含» -->
    <g transform="translate(355.193437 243.707737) scale(0.09 -0.09)">
     <use xlink:href="#NotoSansCJKjp-Regular-ab"/>
     <use xlink:href="#NotoSansCJKjp-Regular-5305" x="47.899994"/>
     <use xlink:href="#NotoSansCJKjp-Regular-542b" x="147.899979"/>
     <use xlink:href="#NotoSansCJKjp-Regular-bb" x="247.899963"/>
    </g>
   </g>
   <g id="text_27">
    <!-- 查询成就规则 -->
    <g transform="translate(476.4 283.082612) scale(0.11 -0.11)">
     <use xlink:href="#NotoSansCJKjp-Regular-67e5"/>
     <use xlink:href="#NotoSansCJKjp-Regular-8be2" x="99.999985"/>
     <use xlink:href="#NotoSansCJKjp-Regular-6210" x="199.999969"/>
     <use xlink:href="#NotoSansCJKjp-Regular-5c31" x="299.999954"/>
     <use xlink:href="#NotoSansCJKjp-Regular-89c4" x="399.999939"/>
     <use xlink:href="#NotoSansCJKjp-Regular-5219" x="499.999924"/>
    </g>
   </g>
   <g id="text_28">
    <!-- «包含» -->
    <g transform="translate(355.193437 257.013337) scale(0.09 -0.09)">
     <use xlink:href="#NotoSansCJKjp-Regular-ab"/>
     <use xlink:href="#NotoSansCJKjp-Regular-5305" x="47.899994"/>
     <use xlink:href="#NotoSansCJKjp-Regular-542b" x="147.899979"/>
     <use xlink:href="#NotoSansCJKjp-Regular-bb" x="247.899963"/>
    </g>
   </g>
   <g id="text_29">
    <!-- 成就系统管理（进度与发放） -->
    <g transform="translate(163.56 309.97725) scale(0.12 -0.12)">
     <defs>
      <path id="NotoSansCJKjp-Regular-ff08" d="M 4448 2432 
C 4448 1184 4954 166 5722 -614 
L 6106 -416 
C 5370 346 4915 1293 4915 2432 
C 4915 3571 5370 4518 6106 5280 
L 5722 5478 
C 4954 4698 4448 3680 4448 2432 
z
" transform="scale(0.015625)"/>
      <path id="NotoSansCJKjp-Regular-8fdb" d="M 518 4979 
C 870 4659 1299 4192 1498 3898 
L 1869 4205 
C 1658 4486 1216 4928 864 5242 
L 518 4979 
z
M 4608 5242 
L 4608 4211 
L 3552 4211 
L 3552 5242 
L 3078 5242 
L 3078 4211 
L 2170 4211 
L 2170 3750 
L 3078 3750 
L 3078 3002 
L 3066 2605 
L 2131 2605 
L 2131 2144 
L 3014 2144 
C 2918 1658 2707 1184 2227 819 
C 2330 749 2509 570 2573 474 
C 3142 909 3392 1530 3488 2144 
L 4608 2144 
L 4608 512 
L 5088 512 
L 5088 2144 
L 6042 2144 
L 6042 2605 
L 5088 2605 
L 5088 3750 
L 5914 3750 
L 5914 4211 
L 5088 4211 
L 5088 5242 
L 4608 5242 
z
M 3552 3750 
L 4608 3750 
L 4608 2605 
L 3539 2605 
L 3552 2995 
L 3552 3750 
z
M 1677 3059 
L 320 3059 
L 320 2611 
L 1203 2611 
L 1203 774 
C 915 666 582 384 243 13 
L 563 -422 
C 896 13 1210 390 1427 390 
C 1568 390 1773 179 2042 13 
C 2483 -269 3021 -339 3814 -339 
C 4422 -339 5574 -301 6029 -275 
C 6035 -134 6112 96 6170 224 
C 5549 154 4582 102 3827 102 
C 3104 102 2566 147 2144 410 
C 1933 544 1798 666 1677 736 
L 1677 3059 
z
" transform="scale(0.015625)"/>
      <path id="NotoSansCJKjp-Regular-5ea6" d="M 2470 4141 
L 2470 3584 
L 1440 3584 
L 1440 3187 
L 2470 3187 
L 2470 2125 
L 4960 2125 
L 4960 3187 
L 5997 3187 
L 5997 3584 
L 4960 3584 
L 4960 4141 
L 4486 4141 
L 4486 3584 
L 2931 3584 
L 2931 4141 
L 2470 4141 
z
M 4486 3187 
L 4486 2509 
L 2931 2509 
L 2931 3187 
L 4486 3187 
z
M 4851 1318 
C 4582 986 4211 717 3770 506 
C 3334 723 2970 992 2720 1318 
L 4851 1318 
z
M 1530 1715 
L 1530 1318 
L 2502 1318 
L 2259 1222 
C 2515 858 2861 550 3270 301 
C 2662 90 1978 -38 1280 -109 
C 1357 -211 1453 -397 1485 -512 
C 2291 -416 3072 -243 3757 45 
C 4365 -237 5088 -422 5869 -525 
C 5933 -403 6048 -211 6150 -109 
C 5466 -38 4819 96 4269 294 
C 4813 608 5261 1024 5549 1574 
L 5248 1734 
L 5165 1715 
L 1530 1715 
z
M 774 4742 
L 774 2893 
C 774 1965 730 659 198 -256 
C 314 -307 512 -435 595 -518 
C 1152 448 1235 1901 1235 2893 
L 1235 4307 
L 6035 4307 
L 6035 4742 
L 3635 4742 
L 3635 5376 
L 3142 5376 
L 3142 4742 
L 774 4742 
z
" transform="scale(0.015625)"/>
      <path id="NotoSansCJKjp-Regular-4e0e" d="M 1939 5389 
C 1773 4429 1485 3098 1267 2317 
L 1760 2272 
L 1843 2605 
L 4525 2605 
C 4486 2246 4454 1939 4416 1664 
L 346 1664 
L 346 1210 
L 4346 1210 
C 4230 518 4102 160 3949 26 
C 3866 -45 3776 -51 3616 -51 
C 3437 -51 2957 -51 2470 0 
C 2560 -134 2624 -339 2637 -480 
C 3098 -512 3558 -518 3789 -506 
C 4045 -486 4198 -442 4365 -282 
C 4570 -83 4710 346 4845 1210 
L 6074 1210 
L 6074 1664 
L 4902 1664 
C 4947 1997 4986 2374 5030 2816 
C 5037 2886 5050 3053 5050 3053 
L 1952 3053 
L 2163 4000 
L 5402 4000 
L 5402 4461 
L 2259 4461 
L 2432 5338 
L 1939 5389 
z
" transform="scale(0.015625)"/>
      <path id="NotoSansCJKjp-Regular-53d1" d="M 4307 5056 
C 4582 4762 4947 4352 5126 4109 
L 5504 4371 
C 5325 4602 4954 4998 4678 5286 
L 4307 5056 
z
M 922 3347 
C 986 3418 1203 3456 1606 3456 
L 2502 3456 
C 2080 2125 1370 1075 192 365 
C 314 282 486 96 550 -6 
C 1382 506 1990 1158 2438 1952 
C 2694 1472 3014 1056 3398 704 
C 2848 314 2202 45 1536 -115 
C 1626 -218 1741 -397 1792 -525 
C 2509 -326 3187 -32 3770 390 
C 4352 -38 5050 -346 5869 -531 
C 5939 -397 6067 -205 6170 -102 
C 5389 45 4710 320 4147 691 
C 4704 1184 5139 1824 5402 2643 
L 5075 2797 
L 4986 2771 
L 2822 2771 
C 2906 2989 2989 3219 3053 3456 
L 5952 3456 
L 5958 3917 
L 3181 3917 
C 3283 4358 3366 4819 3437 5312 
L 2899 5402 
C 2835 4877 2746 4384 2630 3917 
L 1466 3917 
C 1645 4256 1824 4685 1939 5101 
L 1427 5197 
C 1318 4704 1069 4186 998 4058 
C 922 3917 851 3821 762 3802 
C 819 3686 896 3450 922 3347 
z
M 3763 986 
C 3328 1357 2982 1798 2733 2310 
L 4749 2310 
C 4518 1786 4173 1350 3763 986 
z
" transform="scale(0.015625)"/>
      <path id="NotoSansCJKjp-Regular-653e" d="M 1453 5363 
L 1453 4339 
L 282 4339 
L 282 3891 
L 1037 3891 
L 1037 2560 
C 1037 1651 941 640 160 -192 
C 275 -275 435 -403 518 -506 
C 1370 403 1498 1491 1498 2554 
L 1498 2592 
L 2374 2592 
C 2330 800 2285 166 2176 26 
C 2125 -51 2074 -64 1978 -64 
C 1882 -64 1638 -58 1370 -38 
C 1446 -160 1491 -352 1498 -486 
C 1773 -493 2042 -493 2195 -480 
C 2368 -461 2477 -410 2579 -269 
C 2752 -51 2784 678 2829 2816 
C 2835 2886 2835 3040 2835 3040 
L 1498 3040 
L 1498 3891 
L 3123 3891 
L 3123 4339 
L 1926 4339 
L 1926 5363 
L 1453 5363 
z
M 3974 3731 
L 5203 3731 
C 5069 2912 4870 2214 4570 1638 
C 4282 2221 4077 2899 3942 3635 
L 3974 3731 
z
M 3872 5382 
C 3686 4275 3354 3200 2848 2528 
C 2963 2451 3174 2298 3258 2214 
C 3405 2419 3533 2662 3654 2918 
C 3814 2272 4019 1683 4282 1171 
C 3898 627 3379 205 2688 -102 
C 2778 -205 2918 -416 2963 -525 
C 3629 -198 4141 218 4544 730 
C 4890 205 5325 -211 5869 -499 
C 5939 -371 6093 -186 6202 -90 
C 5632 179 5184 608 4832 1158 
C 5248 1850 5510 2694 5683 3731 
L 6157 3731 
L 6157 4179 
L 4109 4179 
C 4211 4538 4294 4922 4365 5306 
L 3872 5382 
z
" transform="scale(0.015625)"/>
      <path id="NotoSansCJKjp-Regular-ff09" d="M 1952 2432 
C 1952 3680 1446 4698 678 5478 
L 294 5280 
C 1030 4518 1485 3571 1485 2432 
C 1485 1293 1030 346 294 -416 
L 678 -614 
C 1446 166 1952 1184 1952 2432 
z
" transform="scale(0.015625)"/>
     </defs>
     <use xlink:href="#NotoSansCJKjp-Regular-6210"/>
     <use xlink:href="#NotoSansCJKjp-Regular-5c31" x="99.999985"/>
     <use xlink:href="#NotoSansCJKjp-Regular-7cfb" x="199.999969"/>
     <use xlink:href="#NotoSansCJKjp-Regular-7edf" x="299.999954"/>
     <use xlink:href="#NotoSansCJKjp-Regular-7ba1" x="399.999939"/>
     <use xlink:href="#NotoSansCJKjp-Regular-7406" x="499.999924"/>
     <use xlink:href="#NotoSansCJKjp-Regular-ff08" x="599.999908"/>
     <use xlink:href="#NotoSansCJKjp-Regular-8fdb" x="699.999893"/>
     <use xlink:href="#NotoSansCJKjp-Regular-5ea6" x="799.999878"/>
     <use xlink:href="#NotoSansCJKjp-Regular-4e0e" x="899.999863"/>
     <use xlink:href="#NotoSansCJKjp-Regular-53d1" x="999.999847"/>
     <use xlink:href="#NotoSansCJKjp-Regular-653e" x="1099.999832"/>
     <use xlink:href="#NotoSansCJKjp-Regular-ff09" x="1199.999817"/>
    </g>
   </g>
   <g id="text_30">
    <!-- 添加成就进度/发放 -->
    <g transform="translate(463.243828 269.777012) scale(0.11 -0.11)">
     <defs>
      <path id="NotoSansCJKjp-Regular-2f" d="M 70 -1146 
L 499 -1146 
L 2413 5082 
L 1990 5082 
L 70 -1146 
z
" transform="scale(0.015625)"/>
     </defs>
     <use xlink:href="#NotoSansCJKjp-Regular-6dfb"/>
     <use xlink:href="#NotoSansCJKjp-Regular-52a0" x="99.999985"/>
     <use xlink:href="#NotoSansCJKjp-Regular-6210" x="199.999969"/>
     <use xlink:href="#NotoSansCJKjp-Regular-5c31" x="299.999954"/>
     <use xlink:href="#NotoSansCJKjp-Regular-8fdb" x="399.999939"/>
     <use xlink:href="#NotoSansCJKjp-Regular-5ea6" x="499.999924"/>
     <use xlink:href="#NotoSansCJKjp-Regular-2f" x="599.999908"/>
     <use xlink:href="#NotoSansCJKjp-Regular-53d1" x="639.199905"/>
     <use xlink:href="#NotoSansCJKjp-Regular-653e" x="739.19989"/>
    </g>
   </g>
   <g id="text_31">
    <!-- «包含» -->
    <g transform="translate(355.193437 283.624537) scale(0.09 -0.09)">
     <use xlink:href="#NotoSansCJKjp-Regular-ab"/>
     <use xlink:href="#NotoSansCJKjp-Regular-5305" x="47.899994"/>
     <use xlink:href="#NotoSansCJKjp-Regular-542b" x="147.899979"/>
     <use xlink:href="#NotoSansCJKjp-Regular-bb" x="247.899963"/>
    </g>
   </g>
   <g id="text_32">
    <!-- 删除成就进度/发放 -->
    <g transform="translate(463.243828 296.388212) scale(0.11 -0.11)">
     <use xlink:href="#NotoSansCJKjp-Regular-5220"/>
     <use xlink:href="#NotoSansCJKjp-Regular-9664" x="99.999985"/>
     <use xlink:href="#NotoSansCJKjp-Regular-6210" x="199.999969"/>
     <use xlink:href="#NotoSansCJKjp-Regular-5c31" x="299.999954"/>
     <use xlink:href="#NotoSansCJKjp-Regular-8fdb" x="399.999939"/>
     <use xlink:href="#NotoSansCJKjp-Regular-5ea6" x="499.999924"/>
     <use xlink:href="#NotoSansCJKjp-Regular-2f" x="599.999908"/>
     <use xlink:href="#NotoSansCJKjp-Regular-53d1" x="639.199905"/>
     <use xlink:href="#NotoSansCJKjp-Regular-653e" x="739.19989"/>
    </g>
   </g>
   <g id="text_33">
    <!-- «包含» -->
    <g transform="translate(355.193437 296.930137) scale(0.09 -0.09)">
     <use xlink:href="#NotoSansCJKjp-Regular-ab"/>
     <use xlink:href="#NotoSansCJKjp-Regular-5305" x="47.899994"/>
     <use xlink:href="#NotoSansCJKjp-Regular-542b" x="147.899979"/>
     <use xlink:href="#NotoSansCJKjp-Regular-bb" x="247.899963"/>
    </g>
   </g>
   <g id="text_34">
    <!-- 修改成就进度/发放 -->
    <g transform="translate(463.243828 322.999412) scale(0.11 -0.11)">
     <use xlink:href="#NotoSansCJKjp-Regular-4fee"/>
     <use xlink:href="#NotoSansCJKjp-Regular-6539" x="99.999985"/>
     <use xlink:href="#NotoSansCJKjp-Regular-6210" x="199.999969"/>
     <use xlink:href="#NotoSansCJKjp-Regular-5c31" x="299.999954"/>
     <use xlink:href="#NotoSansCJKjp-Regular-8fdb" x="399.999939"/>
     <use xlink:href="#NotoSansCJKjp-Regular-5ea6" x="499.999924"/>
     <use xlink:href="#NotoSansCJKjp-Regular-2f" x="599.999908"/>
     <use xlink:href="#NotoSansCJKjp-Regular-53d1" x="639.199905"/>
     <use xlink:href="#NotoSansCJKjp-Regular-653e" x="739.19989"/>
    </g>
   </g>
   <g id="text_35">
    <!-- «包含» -->
    <g transform="translate(355.193437 310.235737) scale(0.09 -0.09)">
     <use xlink:href="#NotoSansCJKjp-Regular-ab"/>
     <use xlink:href="#NotoSansCJKjp-Regular-5305" x="47.899994"/>
     <use xlink:href="#NotoSansCJKjp-Regular-542b" x="147.899979"/>
     <use xlink:href="#NotoSansCJKjp-Regular-bb" x="247.899963"/>
    </g>
   </g>
   <g id="text_36">
    <!-- 查询成就进度/发放 -->
    <g transform="translate(463.243828 349.610612) scale(0.11 -0.11)">
     <use xlink:href="#NotoSansCJKjp-Regular-67e5"/>
     <use xlink:href="#NotoSansCJKjp-Regular-8be2" x="99.999985"/>
     <use xlink:href="#NotoSansCJKjp-Regular-6210" x="199.999969"/>
     <use xlink:href="#NotoSansCJKjp-Regular-5c31" x="299.999954"/>
     <use xlink:href="#NotoSansCJKjp-Regular-8fdb" x="399.999939"/>
     <use xlink:href="#NotoSansCJKjp-Regular-5ea6" x="499.999924"/>
     <use xlink:href="#NotoSansCJKjp-Regular-2f" x="599.999908"/>
     <use xlink:href="#NotoSansCJKjp-Regular-53d1" x="639.199905"/>
     <use xlink:href="#NotoSansCJKjp-Regular-653e" x="739.19989"/>
    </g>
   </g>
   <g id="text_37">
    <!-- «包含» -->
    <g transform="translate(355.193437 323.541337) scale(0.09 -0.09)">
     <use xlink:href="#NotoSansCJKjp-Regular-ab"/>
     <use xlink:href="#NotoSansCJKjp-Regular-5305" x="47.899994"/>
     <use xlink:href="#NotoSansCJKjp-Regular-542b" x="147.899979"/>
     <use xlink:href="#NotoSansCJKjp-Regular-bb" x="247.899963"/>
    </g>
   </g>
   <g id="text_38">
    <!-- 用例图（管理员端） -->
    <g transform="translate(270 25.595) scale(0.16 -0.16)">
     <defs>
      <path id="NotoSansCJKjp-Regular-4f8b" d="M 4320 4653 
L 4320 954 
L 4755 954 
L 4755 4653 
L 4320 4653 
z
M 5491 5274 
L 5491 90 
C 5491 -19 5453 -45 5350 -51 
C 5242 -58 4902 -58 4512 -45 
C 4582 -179 4646 -390 4672 -518 
C 5178 -518 5491 -506 5683 -422 
C 5869 -346 5939 -211 5939 96 
L 5939 5274 
L 5491 5274 
z
M 1958 5050 
L 1958 4621 
L 2547 4621 
C 2413 3680 2131 2573 1562 1894 
C 1651 1818 1792 1658 1856 1568 
C 2016 1754 2157 1971 2285 2208 
C 2579 1997 2906 1722 3110 1510 
C 2790 762 2349 205 1818 -160 
C 1920 -237 2067 -416 2138 -525 
C 3117 179 3827 1549 4077 3635 
L 3795 3731 
L 3718 3712 
L 2822 3712 
C 2899 4019 2963 4326 3014 4621 
L 4288 4621 
L 4288 5050 
L 1958 5050 
z
M 2707 3283 
L 3584 3283 
C 3514 2797 3411 2355 3277 1958 
C 3072 2157 2752 2406 2464 2592 
C 2554 2810 2637 3046 2707 3283 
z
M 1491 5350 
C 1184 4365 672 3392 115 2752 
C 198 2630 320 2374 371 2266 
C 582 2509 781 2797 973 3110 
L 973 -512 
L 1421 -512 
L 1421 3942 
C 1619 4358 1792 4794 1933 5222 
L 1491 5350 
z
" transform="scale(0.015625)"/>
      <path id="NotoSansCJKjp-Regular-56fe" d="M 2400 1786 
C 2912 1677 3565 1453 3923 1274 
L 4122 1600 
C 3763 1766 3117 1978 2605 2080 
L 2400 1786 
z
M 1760 973 
C 2643 864 3750 608 4365 390 
L 4576 749 
C 3955 954 2848 1203 1984 1299 
L 1760 973 
z
M 538 5094 
L 538 -512 
L 998 -512 
L 998 -243 
L 5389 -243 
L 5389 -512 
L 5869 -512 
L 5869 5094 
L 538 5094 
z
M 998 186 
L 998 4659 
L 5389 4659 
L 5389 186 
L 998 186 
z
M 2650 4531 
C 2330 4006 1779 3507 1229 3181 
C 1331 3117 1498 2970 1568 2893 
C 1760 3021 1958 3174 2157 3347 
C 2349 3142 2586 2950 2842 2778 
C 2298 2522 1683 2330 1114 2214 
C 1197 2125 1299 1939 1344 1824 
C 1971 1971 2643 2208 3251 2534 
C 3782 2246 4390 2029 4998 1894 
C 5056 2010 5178 2176 5267 2259 
C 4704 2362 4141 2534 3642 2765 
C 4122 3078 4525 3443 4794 3878 
L 4518 4038 
L 4448 4019 
L 2790 4019 
C 2886 4141 2976 4262 3053 4390 
L 2650 4531 
z
M 2419 3603 
L 2464 3648 
L 4122 3648 
C 3891 3398 3584 3174 3238 2976 
C 2912 3162 2630 3373 2419 3603 
z
" transform="scale(0.015625)"/>
      <path id="NotoSansCJKjp-Regular-7aef" d="M 467 3341 
C 608 2688 704 1830 710 1274 
L 1101 1338 
C 1094 1901 992 2746 838 3405 
L 467 3341 
z
M 2618 2022 
L 2618 -506 
L 3053 -506 
L 3053 1606 
L 3610 1606 
L 3610 -442 
L 3994 -442 
L 3994 1606 
L 4589 1606 
L 4589 -422 
L 4973 -422 
L 4973 1606 
L 5562 1606 
L 5562 -58 
C 5562 -109 5549 -128 5491 -128 
C 5440 -134 5280 -134 5101 -128 
C 5158 -237 5216 -403 5229 -518 
C 5523 -518 5702 -512 5837 -442 
C 5965 -378 5997 -262 5997 -64 
L 5997 2022 
L 4326 2022 
L 4518 2624 
L 6138 2624 
L 6138 3059 
L 2413 3059 
L 2413 2624 
L 3981 2624 
C 3942 2426 3904 2208 3859 2022 
L 2618 2022 
z
M 2694 5056 
L 2694 3533 
L 5914 3533 
L 5914 5056 
L 5453 5056 
L 5453 3955 
L 4486 3955 
L 4486 5363 
L 4026 5363 
L 4026 3955 
L 3136 3955 
L 3136 5056 
L 2694 5056 
z
M 1139 5293 
L 1139 4090 
L 333 4090 
L 333 3654 
L 2355 3654 
L 2355 4090 
L 1574 4090 
L 1574 5293 
L 1139 5293 
z
M 1754 3456 
C 1690 2752 1542 1728 1402 1126 
L 1568 1082 
L 211 794 
L 320 326 
C 934 467 1747 666 2515 864 
L 2464 1280 
L 1786 1126 
C 1926 1722 2086 2650 2202 3360 
L 1754 3456 
z
" transform="scale(0.015625)"/>
     </defs>
     <use xlink:href="#NotoSansCJKjp-Regular-7528"/>
     <use xlink:href="#NotoSansCJKjp-Regular-4f8b" x="99.999985"/>
     <use xlink:href="#NotoSansCJKjp-Regular-56fe" x="199.999969"/>
     <use xlink:href="#NotoSansCJKjp-Regular-ff08" x="299.999954"/>
     <use xlink:href="#NotoSansCJKjp-Regular-7ba1" x="399.999939"/>
     <use xlink:href="#NotoSansCJKjp-Regular-7406" x="499.999924"/>
     <use xlink:href="#NotoSansCJKjp-Regular-5458" x="599.999908"/>
     <use xlink:href="#NotoSansCJKjp-Regular-7aef" x="699.999893"/>
     <use xlink:href="#NotoSansCJKjp-Regular-ff09" x="799.999878"/>
    </g>
   </g>
  </g>
 </g>
 <defs>
  <clipPath id="p448677b74e">
   <rect x="7.2" y="7.2" width="669.6" height="443.52"/>
  </clipPath>
 </defs>
</svg>
