<?xml version="1.0" encoding="UTF-8" standalone="no"?>
<!DOCTYPE svg PUBLIC "-//W3C//DTD SVG 1.1//EN"
 "http://www.w3.org/Graphics/SVG/1.1/DTD/svg11.dtd">
<!-- Generated by graphviz version 2.43.0 (0)
 -->
<!-- Title: ER Pages: 1 -->
<svg width="1295pt" height="1226pt"
 viewBox="0.00 0.00 1295.00 1226.00" xmlns="http://www.w3.org/2000/svg" xmlns:xlink="http://www.w3.org/1999/xlink">
<g id="graph0" class="graph" transform="scale(1 1) rotate(0) translate(18 1208)">
<title>ER</title>
<polygon fill="white" stroke="transparent" points="-18,18 -18,-1208 1277,-1208 1277,18 -18,18"/>
<!-- users -->
<g id="node1" class="node">
<title>users</title>
<polygon fill="#dcebfa" stroke="transparent" points="177.5,-1036.5 177.5,-1065.5 274.5,-1065.5 274.5,-1036.5 177.5,-1036.5"/>
<polygon fill="none" stroke="black" points="177.5,-1036.5 177.5,-1065.5 274.5,-1065.5 274.5,-1036.5 177.5,-1036.5"/>
<text text-anchor="start" x="184.5" y="-1048.3" font-family="Noto Sans CJK SC" font-weight="bold" font-size="14.00">users 用户表</text>
<polygon fill="none" stroke="black" points="177.5,-1007.5 177.5,-1036.5 274.5,-1036.5 274.5,-1007.5 177.5,-1007.5"/>
<text text-anchor="start" x="184.5" y="-1019.3" font-family="Noto Sans CJK SC" font-weight="bold" font-size="14.00">PK</text>
<text text-anchor="start" x="203.5" y="-1019.3" font-family="Noto Sans CJK SC" font-size="14.00"> id</text>
<polygon fill="none" stroke="black" points="177.5,-978.5 177.5,-1007.5 274.5,-1007.5 274.5,-978.5 177.5,-978.5"/>
<text text-anchor="start" x="184.5" y="-989.3" font-family="Noto Sans CJK SC" font-size="14.00">username</text>
<polygon fill="none" stroke="black" points="177.5,-949.5 177.5,-978.5 274.5,-978.5 274.5,-949.5 177.5,-949.5"/>
<text text-anchor="start" x="184.5" y="-960.3" font-family="Noto Sans CJK SC" font-size="14.00">password</text>
<polygon fill="none" stroke="black" points="177.5,-920.5 177.5,-949.5 274.5,-949.5 274.5,-920.5 177.5,-920.5"/>
<text text-anchor="start" x="184.5" y="-931.3" font-family="Noto Sans CJK SC" font-size="14.00">email</text>
<polygon fill="none" stroke="black" points="177.5,-891.5 177.5,-920.5 274.5,-920.5 274.5,-891.5 177.5,-891.5"/>
<text text-anchor="start" x="184.5" y="-902.3" font-family="Noto Sans CJK SC" font-size="14.00">phone</text>
<polygon fill="none" stroke="black" points="177.5,-862.5 177.5,-891.5 274.5,-891.5 274.5,-862.5 177.5,-862.5"/>
<text text-anchor="start" x="184.5" y="-873.3" font-family="Noto Sans CJK SC" font-size="14.00">user_type</text>
<polygon fill="none" stroke="black" points="177.5,-833.5 177.5,-862.5 274.5,-862.5 274.5,-833.5 177.5,-833.5"/>
<text text-anchor="start" x="184.5" y="-844.3" font-family="Noto Sans CJK SC" font-size="14.00">region</text>
<polygon fill="none" stroke="black" points="177.5,-804.5 177.5,-833.5 274.5,-833.5 274.5,-804.5 177.5,-804.5"/>
<text text-anchor="start" x="184.5" y="-815.3" font-family="Noto Sans CJK SC" font-size="14.00">status</text>
<polygon fill="none" stroke="black" points="177.5,-775.5 177.5,-804.5 274.5,-804.5 274.5,-775.5 177.5,-775.5"/>
<text text-anchor="start" x="184.5" y="-786.3" font-family="Noto Sans CJK SC" font-size="14.00">created_at</text>
<polygon fill="none" stroke="black" points="177.5,-746.5 177.5,-775.5 274.5,-775.5 274.5,-746.5 177.5,-746.5"/>
<text text-anchor="start" x="184.5" y="-757.3" font-family="Noto Sans CJK SC" font-size="14.00">updated_at</text>
<polygon fill="none" stroke="black" points="176,-746 176,-1067 275,-1067 275,-746 176,-746"/>
</g>
<!-- agricultural_products -->
<g id="node4" class="node">
<title>agricultural_products</title>
<polygon fill="#fff2cc" stroke="transparent" points="615.5,-499.5 615.5,-528.5 856.5,-528.5 856.5,-499.5 615.5,-499.5"/>
<polygon fill="none" stroke="black" points="615.5,-499.5 615.5,-528.5 856.5,-528.5 856.5,-499.5 615.5,-499.5"/>
<text text-anchor="start" x="622.5" y="-511.3" font-family="Noto Sans CJK SC" font-weight="bold" font-size="14.00">agricultural_products 农资产品表</text>
<polygon fill="none" stroke="black" points="615.5,-470.5 615.5,-499.5 856.5,-499.5 856.5,-470.5 615.5,-470.5"/>
<text text-anchor="start" x="622.5" y="-482.3" font-family="Noto Sans CJK SC" font-weight="bold" font-size="14.00">PK</text>
<text text-anchor="start" x="641.5" y="-482.3" font-family="Noto Sans CJK SC" font-size="14.00"> id</text>
<polygon fill="none" stroke="black" points="615.5,-441.5 615.5,-470.5 856.5,-470.5 856.5,-441.5 615.5,-441.5"/>
<text text-anchor="start" x="622.5" y="-452.3" font-family="Noto Sans CJK SC" font-size="14.00">product_name</text>
<polygon fill="none" stroke="black" points="615.5,-412.5 615.5,-441.5 856.5,-441.5 856.5,-412.5 615.5,-412.5"/>
<text text-anchor="start" x="622.5" y="-423.3" font-family="Noto Sans CJK SC" font-size="14.00">category</text>
<polygon fill="none" stroke="black" points="615.5,-383.5 615.5,-412.5 856.5,-412.5 856.5,-383.5 615.5,-383.5"/>
<text text-anchor="start" x="622.5" y="-394.3" font-family="Noto Sans CJK SC" font-size="14.00">description</text>
<polygon fill="none" stroke="black" points="615.5,-354.5 615.5,-383.5 856.5,-383.5 856.5,-354.5 615.5,-354.5"/>
<text text-anchor="start" x="622.5" y="-365.3" font-family="Noto Sans CJK SC" font-size="14.00">price</text>
<polygon fill="none" stroke="black" points="615.5,-325.5 615.5,-354.5 856.5,-354.5 856.5,-325.5 615.5,-325.5"/>
<text text-anchor="start" x="622.5" y="-336.3" font-family="Noto Sans CJK SC" font-size="14.00">stock</text>
<polygon fill="none" stroke="black" points="615.5,-296.5 615.5,-325.5 856.5,-325.5 856.5,-296.5 615.5,-296.5"/>
<text text-anchor="start" x="622.5" y="-308.3" font-family="Noto Sans CJK SC" font-weight="bold" font-size="14.00">FK</text>
<text text-anchor="start" x="641.5" y="-308.3" font-family="Noto Sans CJK SC" font-size="14.00"> merchant_id &#45;&gt; users.id</text>
<polygon fill="none" stroke="black" points="615.5,-267.5 615.5,-296.5 856.5,-296.5 856.5,-267.5 615.5,-267.5"/>
<text text-anchor="start" x="622.5" y="-278.3" font-family="Noto Sans CJK SC" font-size="14.00">applicable_weather</text>
<polygon fill="none" stroke="black" points="615.5,-238.5 615.5,-267.5 856.5,-267.5 856.5,-238.5 615.5,-238.5"/>
<text text-anchor="start" x="622.5" y="-249.3" font-family="Noto Sans CJK SC" font-size="14.00">created_at</text>
<polygon fill="none" stroke="black" points="615.5,-209.5 615.5,-238.5 856.5,-238.5 856.5,-209.5 615.5,-209.5"/>
<text text-anchor="start" x="622.5" y="-220.3" font-family="Noto Sans CJK SC" font-size="14.00">updated_at</text>
<polygon fill="none" stroke="black" points="614,-209 614,-530 857,-530 857,-209 614,-209"/>
</g>
<!-- users&#45;&gt;agricultural_products -->
<g id="edge1" class="edge">
<title>users&#45;&gt;agricultural_products</title>
<path fill="none" stroke="#444444" stroke-width="1.2" d="M275.06,-775C383.66,-775 633,-775 633,-775 633,-775 633,-538.06 633,-538.06"/>
<polygon fill="#444444" stroke="#444444" stroke-width="1.2" points="635.8,-538.06 633,-530.06 630.2,-538.06 635.8,-538.06"/>
<text text-anchor="middle" x="532.5" y="-425.3" font-family="Noto Sans CJK SC" font-size="14.00">商家发布</text>
<text text-anchor="middle" x="626.84" y="-543.27" font-family="Noto Sans CJK SC" font-size="14.00">N</text>
<text text-anchor="middle" x="291.97" y="-777.46" font-family="Noto Sans CJK SC" font-size="14.00">1</text>
</g>
<!-- crops -->
<g id="node5" class="node">
<title>crops</title>
<polygon fill="#d9ead3" stroke="transparent" points="652.5,-802.5 652.5,-831.5 819.5,-831.5 819.5,-802.5 652.5,-802.5"/>
<polygon fill="none" stroke="black" points="652.5,-802.5 652.5,-831.5 819.5,-831.5 819.5,-802.5 652.5,-802.5"/>
<text text-anchor="start" x="693.5" y="-814.3" font-family="Noto Sans CJK SC" font-weight="bold" font-size="14.00">crops 作物表</text>
<polygon fill="none" stroke="black" points="652.5,-773.5 652.5,-802.5 819.5,-802.5 819.5,-773.5 652.5,-773.5"/>
<text text-anchor="start" x="659.5" y="-785.3" font-family="Noto Sans CJK SC" font-weight="bold" font-size="14.00">PK</text>
<text text-anchor="start" x="678.5" y="-785.3" font-family="Noto Sans CJK SC" font-size="14.00"> id</text>
<polygon fill="none" stroke="black" points="652.5,-744.5 652.5,-773.5 819.5,-773.5 819.5,-744.5 652.5,-744.5"/>
<text text-anchor="start" x="659.5" y="-755.3" font-family="Noto Sans CJK SC" font-size="14.00">crop_name</text>
<polygon fill="none" stroke="black" points="652.5,-715.5 652.5,-744.5 819.5,-744.5 819.5,-715.5 652.5,-715.5"/>
<text text-anchor="start" x="659.5" y="-726.3" font-family="Noto Sans CJK SC" font-size="14.00">growth_stage</text>
<polygon fill="none" stroke="black" points="652.5,-686.5 652.5,-715.5 819.5,-715.5 819.5,-686.5 652.5,-686.5"/>
<text text-anchor="start" x="659.5" y="-697.3" font-family="Noto Sans CJK SC" font-size="14.00">region</text>
<polygon fill="none" stroke="black" points="652.5,-657.5 652.5,-686.5 819.5,-686.5 819.5,-657.5 652.5,-657.5"/>
<text text-anchor="start" x="659.5" y="-669.3" font-family="Noto Sans CJK SC" font-weight="bold" font-size="14.00">FK</text>
<text text-anchor="start" x="678.5" y="-669.3" font-family="Noto Sans CJK SC" font-size="14.00"> user_id &#45;&gt; users.id</text>
<polygon fill="none" stroke="black" points="652.5,-628.5 652.5,-657.5 819.5,-657.5 819.5,-628.5 652.5,-628.5"/>
<text text-anchor="start" x="659.5" y="-639.3" font-family="Noto Sans CJK SC" font-size="14.00">planting_date</text>
<polygon fill="none" stroke="black" points="652.5,-599.5 652.5,-628.5 819.5,-628.5 819.5,-599.5 652.5,-599.5"/>
<text text-anchor="start" x="659.5" y="-610.3" font-family="Noto Sans CJK SC" font-size="14.00">expected_harvest_date</text>
<polygon fill="none" stroke="black" points="652.5,-570.5 652.5,-599.5 819.5,-599.5 819.5,-570.5 652.5,-570.5"/>
<text text-anchor="start" x="659.5" y="-581.3" font-family="Noto Sans CJK SC" font-size="14.00">created_at</text>
<polygon fill="none" stroke="black" points="651,-570 651,-833 820,-833 820,-570 651,-570"/>
</g>
<!-- users&#45;&gt;crops -->
<g id="edge2" class="edge">
<title>users&#45;&gt;crops</title>
<path fill="none" stroke="#444444" stroke-width="1.2" d="M275.33,-804C275.33,-804 642.95,-804 642.95,-804"/>
<polygon fill="#444444" stroke="#444444" stroke-width="1.2" points="642.95,-806.8 650.95,-804 642.95,-801.2 642.95,-806.8"/>
<text text-anchor="middle" x="532.5" y="-705.3" font-family="Noto Sans CJK SC" font-size="14.00">用户种植</text>
<text text-anchor="middle" x="636.86" y="-795.17" font-family="Noto Sans CJK SC" font-size="14.00">N</text>
<text text-anchor="middle" x="289.42" y="-805.43" font-family="Noto Sans CJK SC" font-size="14.00">1</text>
</g>
<!-- recommendations -->
<g id="node6" class="node">
<title>recommendations</title>
<polygon fill="#eadcf8" stroke="transparent" points="973.5,-470.5 973.5,-499.5 1258.5,-499.5 1258.5,-470.5 973.5,-470.5"/>
<polygon fill="none" stroke="black" points="973.5,-470.5 973.5,-499.5 1258.5,-499.5 1258.5,-470.5 973.5,-470.5"/>
<text text-anchor="start" x="1029.5" y="-482.3" font-family="Noto Sans CJK SC" font-weight="bold" font-size="14.00">recommendations 推荐表</text>
<polygon fill="none" stroke="black" points="973.5,-441.5 973.5,-470.5 1258.5,-470.5 1258.5,-441.5 973.5,-441.5"/>
<text text-anchor="start" x="980.5" y="-453.3" font-family="Noto Sans CJK SC" font-weight="bold" font-size="14.00">PK</text>
<text text-anchor="start" x="999.5" y="-453.3" font-family="Noto Sans CJK SC" font-size="14.00"> id</text>
<polygon fill="none" stroke="black" points="973.5,-412.5 973.5,-441.5 1258.5,-441.5 1258.5,-412.5 973.5,-412.5"/>
<text text-anchor="start" x="980.5" y="-424.3" font-family="Noto Sans CJK SC" font-weight="bold" font-size="14.00">FK</text>
<text text-anchor="start" x="999.5" y="-424.3" font-family="Noto Sans CJK SC" font-size="14.00"> warning_id &#45;&gt; warnings.id</text>
<polygon fill="none" stroke="black" points="973.5,-383.5 973.5,-412.5 1258.5,-412.5 1258.5,-383.5 973.5,-383.5"/>
<text text-anchor="start" x="980.5" y="-395.3" font-family="Noto Sans CJK SC" font-weight="bold" font-size="14.00">FK</text>
<text text-anchor="start" x="999.5" y="-395.3" font-family="Noto Sans CJK SC" font-size="14.00"> product_id &#45;&gt; agricultural_products.id</text>
<polygon fill="none" stroke="black" points="973.5,-354.5 973.5,-383.5 1258.5,-383.5 1258.5,-354.5 973.5,-354.5"/>
<text text-anchor="start" x="980.5" y="-366.3" font-family="Noto Sans CJK SC" font-weight="bold" font-size="14.00">FK</text>
<text text-anchor="start" x="999.5" y="-366.3" font-family="Noto Sans CJK SC" font-size="14.00"> user_id &#45;&gt; users.id</text>
<polygon fill="none" stroke="black" points="973.5,-325.5 973.5,-354.5 1258.5,-354.5 1258.5,-325.5 973.5,-325.5"/>
<text text-anchor="start" x="980.5" y="-336.3" font-family="Noto Sans CJK SC" font-size="14.00">priority</text>
<polygon fill="none" stroke="black" points="973.5,-296.5 973.5,-325.5 1258.5,-325.5 1258.5,-296.5 973.5,-296.5"/>
<text text-anchor="start" x="980.5" y="-307.3" font-family="Noto Sans CJK SC" font-size="14.00">reason</text>
<polygon fill="none" stroke="black" points="973.5,-267.5 973.5,-296.5 1258.5,-296.5 1258.5,-267.5 973.5,-267.5"/>
<text text-anchor="start" x="980.5" y="-278.3" font-family="Noto Sans CJK SC" font-size="14.00">status</text>
<polygon fill="none" stroke="black" points="973.5,-238.5 973.5,-267.5 1258.5,-267.5 1258.5,-238.5 973.5,-238.5"/>
<text text-anchor="start" x="980.5" y="-249.3" font-family="Noto Sans CJK SC" font-size="14.00">created_at</text>
<polygon fill="none" stroke="black" points="972,-238 972,-501 1259,-501 1259,-238 972,-238"/>
</g>
<!-- users&#45;&gt;recommendations -->
<g id="edge3" class="edge">
<title>users&#45;&gt;recommendations</title>
<path fill="none" stroke="#444444" stroke-width="1.2" d="M275.09,-901.17C433.18,-901.17 915,-901.17 915,-901.17 915,-901.17 915,-413.33 915,-413.33 915,-413.33 963.92,-413.33 963.92,-413.33"/>
<polygon fill="#444444" stroke="#444444" stroke-width="1.2" points="963.92,-416.13 971.92,-413.33 963.92,-410.53 963.92,-416.13"/>
<text text-anchor="middle" x="735.5" y="-917.3" font-family="Noto Sans CJK SC" font-size="14.00">接收推荐</text>
<text text-anchor="middle" x="958.76" y="-404.85" font-family="Noto Sans CJK SC" font-size="14.00">N</text>
<text text-anchor="middle" x="288.24" y="-902.25" font-family="Noto Sans CJK SC" font-size="14.00">1</text>
</g>
<!-- orders -->
<g id="node7" class="node">
<title>orders</title>
<polygon fill="#f4cccc" stroke="transparent" points="973.5,-1007.5 973.5,-1036.5 1258.5,-1036.5 1258.5,-1007.5 973.5,-1007.5"/>
<polygon fill="none" stroke="black" points="973.5,-1007.5 973.5,-1036.5 1258.5,-1036.5 1258.5,-1007.5 973.5,-1007.5"/>
<text text-anchor="start" x="1070.5" y="-1019.3" font-family="Noto Sans CJK SC" font-weight="bold" font-size="14.00">orders 订单表</text>
<polygon fill="none" stroke="black" points="973.5,-978.5 973.5,-1007.5 1258.5,-1007.5 1258.5,-978.5 973.5,-978.5"/>
<text text-anchor="start" x="980.5" y="-990.3" font-family="Noto Sans CJK SC" font-weight="bold" font-size="14.00">PK</text>
<text text-anchor="start" x="999.5" y="-990.3" font-family="Noto Sans CJK SC" font-size="14.00"> id</text>
<polygon fill="none" stroke="black" points="973.5,-949.5 973.5,-978.5 1258.5,-978.5 1258.5,-949.5 973.5,-949.5"/>
<text text-anchor="start" x="980.5" y="-960.3" font-family="Noto Sans CJK SC" font-size="14.00">order_number</text>
<polygon fill="none" stroke="black" points="973.5,-920.5 973.5,-949.5 1258.5,-949.5 1258.5,-920.5 973.5,-920.5"/>
<text text-anchor="start" x="980.5" y="-932.3" font-family="Noto Sans CJK SC" font-weight="bold" font-size="14.00">FK</text>
<text text-anchor="start" x="999.5" y="-932.3" font-family="Noto Sans CJK SC" font-size="14.00"> user_id &#45;&gt; users.id</text>
<polygon fill="none" stroke="black" points="973.5,-891.5 973.5,-920.5 1258.5,-920.5 1258.5,-891.5 973.5,-891.5"/>
<text text-anchor="start" x="980.5" y="-903.3" font-family="Noto Sans CJK SC" font-weight="bold" font-size="14.00">FK</text>
<text text-anchor="start" x="999.5" y="-903.3" font-family="Noto Sans CJK SC" font-size="14.00"> product_id &#45;&gt; agricultural_products.id</text>
<polygon fill="none" stroke="black" points="973.5,-862.5 973.5,-891.5 1258.5,-891.5 1258.5,-862.5 973.5,-862.5"/>
<text text-anchor="start" x="980.5" y="-873.3" font-family="Noto Sans CJK SC" font-size="14.00">quantity</text>
<polygon fill="none" stroke="black" points="973.5,-833.5 973.5,-862.5 1258.5,-862.5 1258.5,-833.5 973.5,-833.5"/>
<text text-anchor="start" x="980.5" y="-844.3" font-family="Noto Sans CJK SC" font-size="14.00">total_price</text>
<polygon fill="none" stroke="black" points="973.5,-804.5 973.5,-833.5 1258.5,-833.5 1258.5,-804.5 973.5,-804.5"/>
<text text-anchor="start" x="980.5" y="-815.3" font-family="Noto Sans CJK SC" font-size="14.00">status</text>
<polygon fill="none" stroke="black" points="973.5,-775.5 973.5,-804.5 1258.5,-804.5 1258.5,-775.5 973.5,-775.5"/>
<text text-anchor="start" x="980.5" y="-786.3" font-family="Noto Sans CJK SC" font-size="14.00">payment_method</text>
<polygon fill="none" stroke="black" points="973.5,-746.5 973.5,-775.5 1258.5,-775.5 1258.5,-746.5 973.5,-746.5"/>
<text text-anchor="start" x="980.5" y="-757.3" font-family="Noto Sans CJK SC" font-size="14.00">delivery_address</text>
<polygon fill="none" stroke="black" points="973.5,-717.5 973.5,-746.5 1258.5,-746.5 1258.5,-717.5 973.5,-717.5"/>
<text text-anchor="start" x="980.5" y="-728.3" font-family="Noto Sans CJK SC" font-size="14.00">created_at</text>
<polygon fill="none" stroke="black" points="973.5,-688.5 973.5,-717.5 1258.5,-717.5 1258.5,-688.5 973.5,-688.5"/>
<text text-anchor="start" x="980.5" y="-699.3" font-family="Noto Sans CJK SC" font-size="14.00">updated_at</text>
<polygon fill="none" stroke="black" points="972,-687.5 972,-1037.5 1259,-1037.5 1259,-687.5 972,-687.5"/>
</g>
<!-- users&#45;&gt;orders -->
<g id="edge4" class="edge">
<title>users&#45;&gt;orders</title>
<path fill="none" stroke="#444444" stroke-width="1.2" d="M275.26,-969.33C275.26,-969.33 963.73,-969.33 963.73,-969.33"/>
<polygon fill="#444444" stroke="#444444" stroke-width="1.2" points="963.73,-972.13 971.73,-969.33 963.73,-966.53 963.73,-972.13"/>
<text text-anchor="middle" x="735.5" y="-1012.3" font-family="Noto Sans CJK SC" font-size="14.00">下单</text>
<text text-anchor="middle" x="960.31" y="-961.93" font-family="Noto Sans CJK SC" font-size="14.00">N</text>
<text text-anchor="middle" x="286.67" y="-969.34" font-family="Noto Sans CJK SC" font-size="14.00">1</text>
</g>
<!-- weather_data -->
<g id="node2" class="node">
<title>weather_data</title>
<polygon fill="#e9f7e9" stroke="transparent" points="132.5,-662.5 132.5,-691.5 318.5,-691.5 318.5,-662.5 132.5,-662.5"/>
<polygon fill="none" stroke="black" points="132.5,-662.5 132.5,-691.5 318.5,-691.5 318.5,-662.5 132.5,-662.5"/>
<text text-anchor="start" x="139.5" y="-674.3" font-family="Noto Sans CJK SC" font-weight="bold" font-size="14.00">weather_data 气象数据表</text>
<polygon fill="none" stroke="black" points="132.5,-633.5 132.5,-662.5 318.5,-662.5 318.5,-633.5 132.5,-633.5"/>
<text text-anchor="start" x="139.5" y="-645.3" font-family="Noto Sans CJK SC" font-weight="bold" font-size="14.00">PK</text>
<text text-anchor="start" x="158.5" y="-645.3" font-family="Noto Sans CJK SC" font-size="14.00"> id</text>
<polygon fill="none" stroke="black" points="132.5,-604.5 132.5,-633.5 318.5,-633.5 318.5,-604.5 132.5,-604.5"/>
<text text-anchor="start" x="139.5" y="-615.3" font-family="Noto Sans CJK SC" font-size="14.00">region</text>
<polygon fill="none" stroke="black" points="132.5,-575.5 132.5,-604.5 318.5,-604.5 318.5,-575.5 132.5,-575.5"/>
<text text-anchor="start" x="139.5" y="-586.3" font-family="Noto Sans CJK SC" font-size="14.00">temperature</text>
<polygon fill="none" stroke="black" points="132.5,-546.5 132.5,-575.5 318.5,-575.5 318.5,-546.5 132.5,-546.5"/>
<text text-anchor="start" x="139.5" y="-557.3" font-family="Noto Sans CJK SC" font-size="14.00">humidity</text>
<polygon fill="none" stroke="black" points="132.5,-517.5 132.5,-546.5 318.5,-546.5 318.5,-517.5 132.5,-517.5"/>
<text text-anchor="start" x="139.5" y="-528.3" font-family="Noto Sans CJK SC" font-size="14.00">precipitation</text>
<polygon fill="none" stroke="black" points="132.5,-488.5 132.5,-517.5 318.5,-517.5 318.5,-488.5 132.5,-488.5"/>
<text text-anchor="start" x="139.5" y="-499.3" font-family="Noto Sans CJK SC" font-size="14.00">wind_speed</text>
<polygon fill="none" stroke="black" points="132.5,-459.5 132.5,-488.5 318.5,-488.5 318.5,-459.5 132.5,-459.5"/>
<text text-anchor="start" x="139.5" y="-470.3" font-family="Noto Sans CJK SC" font-size="14.00">weather_condition</text>
<polygon fill="none" stroke="black" points="132.5,-430.5 132.5,-459.5 318.5,-459.5 318.5,-430.5 132.5,-430.5"/>
<text text-anchor="start" x="139.5" y="-441.3" font-family="Noto Sans CJK SC" font-size="14.00">recorded_at</text>
<polygon fill="none" stroke="black" points="132.5,-401.5 132.5,-430.5 318.5,-430.5 318.5,-401.5 132.5,-401.5"/>
<text text-anchor="start" x="139.5" y="-412.3" font-family="Noto Sans CJK SC" font-size="14.00">created_at</text>
<polygon fill="none" stroke="black" points="131.5,-400.5 131.5,-692.5 319.5,-692.5 319.5,-400.5 131.5,-400.5"/>
</g>
<!-- warnings -->
<g id="node3" class="node">
<title>warnings</title>
<polygon fill="#fde9d9" stroke="transparent" points="163.5,-290.5 163.5,-319.5 287.5,-319.5 287.5,-290.5 163.5,-290.5"/>
<polygon fill="none" stroke="black" points="163.5,-290.5 163.5,-319.5 287.5,-319.5 287.5,-290.5 163.5,-290.5"/>
<text text-anchor="start" x="170.5" y="-302.3" font-family="Noto Sans CJK SC" font-weight="bold" font-size="14.00">warnings 预警表</text>
<polygon fill="none" stroke="black" points="163.5,-261.5 163.5,-290.5 287.5,-290.5 287.5,-261.5 163.5,-261.5"/>
<text text-anchor="start" x="170.5" y="-273.3" font-family="Noto Sans CJK SC" font-weight="bold" font-size="14.00">PK</text>
<text text-anchor="start" x="189.5" y="-273.3" font-family="Noto Sans CJK SC" font-size="14.00"> id</text>
<polygon fill="none" stroke="black" points="163.5,-232.5 163.5,-261.5 287.5,-261.5 287.5,-232.5 163.5,-232.5"/>
<text text-anchor="start" x="170.5" y="-243.3" font-family="Noto Sans CJK SC" font-size="14.00">warning_type</text>
<polygon fill="none" stroke="black" points="163.5,-203.5 163.5,-232.5 287.5,-232.5 287.5,-203.5 163.5,-203.5"/>
<text text-anchor="start" x="170.5" y="-214.3" font-family="Noto Sans CJK SC" font-size="14.00">region</text>
<polygon fill="none" stroke="black" points="163.5,-174.5 163.5,-203.5 287.5,-203.5 287.5,-174.5 163.5,-174.5"/>
<text text-anchor="start" x="170.5" y="-185.3" font-family="Noto Sans CJK SC" font-size="14.00">severity</text>
<polygon fill="none" stroke="black" points="163.5,-145.5 163.5,-174.5 287.5,-174.5 287.5,-145.5 163.5,-145.5"/>
<text text-anchor="start" x="170.5" y="-156.3" font-family="Noto Sans CJK SC" font-size="14.00">description</text>
<polygon fill="none" stroke="black" points="163.5,-116.5 163.5,-145.5 287.5,-145.5 287.5,-116.5 163.5,-116.5"/>
<text text-anchor="start" x="170.5" y="-127.3" font-family="Noto Sans CJK SC" font-size="14.00">start_time</text>
<polygon fill="none" stroke="black" points="163.5,-87.5 163.5,-116.5 287.5,-116.5 287.5,-87.5 163.5,-87.5"/>
<text text-anchor="start" x="170.5" y="-98.3" font-family="Noto Sans CJK SC" font-size="14.00">end_time</text>
<polygon fill="none" stroke="black" points="163.5,-58.5 163.5,-87.5 287.5,-87.5 287.5,-58.5 163.5,-58.5"/>
<text text-anchor="start" x="170.5" y="-69.3" font-family="Noto Sans CJK SC" font-size="14.00">status</text>
<polygon fill="none" stroke="black" points="163.5,-29.5 163.5,-58.5 287.5,-58.5 287.5,-29.5 163.5,-29.5"/>
<text text-anchor="start" x="170.5" y="-40.3" font-family="Noto Sans CJK SC" font-size="14.00">created_at</text>
<polygon fill="none" stroke="black" points="163.5,-0.5 163.5,-29.5 287.5,-29.5 287.5,-0.5 163.5,-0.5"/>
<text text-anchor="start" x="170.5" y="-11.3" font-family="Noto Sans CJK SC" font-size="14.00">updated_at</text>
<polygon fill="none" stroke="black" points="162.5,0 162.5,-321 288.5,-321 288.5,0 162.5,0"/>
</g>
<!-- weather_data&#45;&gt;warnings -->
<g id="edge8" class="edge">
<title>weather_data&#45;&gt;warnings</title>
<path fill="none" stroke="#888888" stroke-width="1.2" stroke-dasharray="5,2" d="M226,-400.29C226,-400.29 226,-329.27 226,-329.27"/>
<polygon fill="#888888" stroke="#888888" stroke-width="1.2" points="228.8,-329.27 226,-321.27 223.2,-329.27 228.8,-329.27"/>
<text text-anchor="middle" x="175" y="-353.58" font-family="Noto Sans CJK SC" font-size="14.00" fill="#666666">region 逻辑关联</text>
</g>
<!-- warnings&#45;&gt;agricultural_products -->
<g id="edge9" class="edge">
<title>warnings&#45;&gt;agricultural_products</title>
<path fill="none" stroke="#888888" stroke-width="1.2" stroke-dasharray="5,2" d="M288.55,-265C288.55,-265 605.75,-265 605.75,-265"/>
<polygon fill="#888888" stroke="#888888" stroke-width="1.2" points="605.75,-267.8 613.75,-265 605.75,-262.2 605.75,-267.8"/>
<text text-anchor="middle" x="532.5" y="-320.3" font-family="Noto Sans CJK SC" font-size="14.00" fill="#666666">天气/灾害适配</text>
</g>
<!-- warnings&#45;&gt;recommendations -->
<g id="edge5" class="edge">
<title>warnings&#45;&gt;recommendations</title>
<path fill="none" stroke="#444444" stroke-width="1.2" d="M288.83,-104.5C492.27,-104.5 1116,-104.5 1116,-104.5 1116,-104.5 1116,-229.78 1116,-229.78"/>
<polygon fill="#444444" stroke="#444444" stroke-width="1.2" points="1113.2,-229.78 1116,-237.78 1118.8,-229.78 1113.2,-229.78"/>
<text text-anchor="middle" x="735.5" y="-157.3" font-family="Noto Sans CJK SC" font-size="14.00">触发推荐</text>
<text text-anchor="middle" x="1120.33" y="-220.76" font-family="Noto Sans CJK SC" font-size="14.00">N</text>
<text text-anchor="middle" x="302.14" y="-105.13" font-family="Noto Sans CJK SC" font-size="14.00">1</text>
</g>
<!-- agricultural_products&#45;&gt;recommendations -->
<g id="edge6" class="edge">
<title>agricultural_products&#45;&gt;recommendations</title>
<path fill="none" stroke="#444444" stroke-width="1.2" d="M857.04,-325.67C857.04,-325.67 963.66,-325.67 963.66,-325.67"/>
<polygon fill="#444444" stroke="#444444" stroke-width="1.2" points="963.66,-328.47 971.66,-325.67 963.66,-322.87 963.66,-328.47"/>
<text text-anchor="middle" x="914.5" y="-373.3" font-family="Noto Sans CJK SC" font-size="14.00">被推荐</text>
<text text-anchor="middle" x="958.35" y="-317.64" font-family="Noto Sans CJK SC" font-size="14.00">N</text>
<text text-anchor="middle" x="870.36" y="-326.29" font-family="Noto Sans CJK SC" font-size="14.00">1</text>
</g>
<!-- agricultural_products&#45;&gt;orders -->
<g id="edge7" class="edge">
<title>agricultural_products&#45;&gt;orders</title>
<path fill="none" stroke="#444444" stroke-width="1.2" d="M839,-530.12C839,-637.9 839,-760.25 839,-760.25 839,-760.25 963.99,-760.25 963.99,-760.25"/>
<polygon fill="#444444" stroke="#444444" stroke-width="1.2" points="963.99,-763.05 971.99,-760.25 963.99,-757.45 963.99,-763.05"/>
<text text-anchor="middle" x="914.5" y="-654.3" font-family="Noto Sans CJK SC" font-size="14.00">被购买</text>
<text text-anchor="middle" x="959.62" y="-752.53" font-family="Noto Sans CJK SC" font-size="14.00">N</text>
<text text-anchor="middle" x="834.98" y="-538.79" font-family="Noto Sans CJK SC" font-size="14.00">1</text>
</g>
<!-- note_logic -->
<g id="node8" class="node">
<title>note_logic</title>
<polygon fill="none" stroke="black" points="445,-1190 0,-1190 0,-1107 451,-1107 451,-1184 445,-1190"/>
<polyline fill="none" stroke="black" points="445,-1190 445,-1184 "/>
<polyline fill="none" stroke="black" points="451,-1184 445,-1184 "/>
<text text-anchor="middle" x="225.5" y="-1174.8" font-family="Noto Sans CJK SC" font-size="14.00">说明：</text>
<text text-anchor="middle" x="225.5" y="-1159.8" font-family="Noto Sans CJK SC" font-size="14.00">1. 实线表示数据库中已定义的外键关系。</text>
<text text-anchor="middle" x="225.5" y="-1144.8" font-family="Noto Sans CJK SC" font-size="14.00">2. weather_data 与 warnings 均通过 region 字段形成业务逻辑关联，</text>
<text text-anchor="middle" x="225.5" y="-1129.8" font-family="Noto Sans CJK SC" font-size="14.00"> &#160;&#160;但在当前 SQL 中未显式设置外键。</text>
<text text-anchor="middle" x="225.5" y="-1114.8" font-family="Noto Sans CJK SC" font-size="14.00">3. users 同时承担农户、商家、管理员三类角色。</text>
</g>
</g>
</svg>
